STARTFONT 2.3
FONT -FontForge-Satisfy-Book-R-Normal--28-280-72-72-P-121-ISO10646-1
SIZE 28 72 72  4
FONTBOUNDINGBOX 33 41 -6 -14
COMMENT "Generated by fontforge, http://fontforge.sourceforge.net"
COMMENT "Copyright (c) 2011 by Font Diner, Inc. All rights reserved."
STARTPROPERTIES 40
FOUNDRY "FontForge"
FAMILY_NAME "Satisfy"
WEIGHT_NAME "Book"
SLANT "R"
SETWIDTH_NAME "Normal"
ADD_STYLE_NAME ""
PIXEL_SIZE 28
POINT_SIZE 280
RESOLUTION_X 72
RESOLUTION_Y 72
SPACING "P"
AVERAGE_WIDTH 121
CHARSET_REGISTRY "ISO10646"
CHARSET_ENCODING "1"
FONTNAME_REGISTRY ""
CHARSET_COLLECTIONS "ISO10646-1"
BITS_PER_PIXEL 4
FONT_NAME "Satisfy-Regular"
FACE_NAME "Satisfy Regular"
COPYRIGHT "Copyright (c) 2011 by Font Diner, Inc. All rights reserved."
FONT_VERSION "1.001"
FONT_ASCENT 22
FONT_DESCENT 6
UNDERLINE_POSITION -3
UNDERLINE_THICKNESS 2
X_HEIGHT 11
CAP_HEIGHT 20
RAW_ASCENT 799
RAW_DESCENT 200
NORM_SPACE 8
RELATIVE_WEIGHT 40
RELATIVE_SETWIDTH 50
SUPERSCRIPT_X 0
SUPERSCRIPT_Y 13
SUPERSCRIPT_SIZE 18
SUBSCRIPT_X 0
SUBSCRIPT_Y 3
SUBSCRIPT_SIZE 18
AVG_LOWERCASE_WIDTH 114
AVG_UPPERCASE_WIDTH 158
ENDPROPERTIES
CHARS 227
STARTCHAR space
ENCODING 32
SWIDTH 280 0
DWIDTH 8 0
BBX 1 1 0 0
BITMAP
00
ENDCHAR
STARTCHAR exclam
ENCODING 33
SWIDTH 249 0
DWIDTH 7 0
BBX 9 22 -1 -1
BITMAP
0000006830
000009FF40
00000BFF10
00000EFB00
00003FF700
00007FF300
0000AFE000
0000EFA000
0002FF6000
0005FF2000
0009FD0000
000CF90000
001FF50000
004FF10000
007FC00000
00BF800000
00ED200000
0040000000
0011000000
1AFF200000
7FFD000000
2971000000
ENDCHAR
STARTCHAR quotedbl
ENCODING 34
SWIDTH 249 0
DWIDTH 7 0
BBX 8 9 1 12
BITMAP
00382058
03FE05FC
07FA0AF8
0BF60DF4
0EF22FE0
3FD06FA0
7F909F60
AF50DF20
9910A800
ENDCHAR
STARTCHAR numbersign
ENCODING 35
SWIDTH 417 0
DWIDTH 12 0
BBX 14 15 -1 3
BITMAP
00000038102730
000000ED00CF10
000004F802FA00
000009F307F500
0059BEFCCEFCA4
03FFFFFEEFFEE3
02539F305F5000
0000DD00BE0000
0015FA44FC3200
2DFFFFFFFFFF40
7DBFE88EF87600
003FA01FC00000
008F606F800000
00DF20BF400000
01B800B9100000
ENDCHAR
STARTCHAR dollar
ENCODING 36
SWIDTH 292 0
DWIDTH 8 0
BBX 11 22 -1 -1
BITMAP
000000041000
0000001F4000
0000007F2000
00006EFEE300
0007FA11EC00
003FD000AF20
006F8000BF20
007F8001FD00
004FC006A200
000EF3000000
0009FA000000
0002FF200000
0000AF900000
00002FE10000
3C100AF50000
DD0007F60000
EE000AF40000
8F705FB00000
09EFE9100000
00AE10000000
00EA00000000
004100000000
ENDCHAR
STARTCHAR percent
ENCODING 37
SWIDTH 574 0
DWIDTH 16 0
BBX 17 22 0 -1
BITMAP
000024100000003820
0008FFE4000007FA00
008FB3CD10004FD100
02FD107F4001DF3000
08F5006F500AF70000
0CF1009F305FB00000
0DD000DE01EE100000
0CD005F90BF5000000
0AF54EE26F90000000
03EFFE32ED10000000
0026510BF300000000
0000007F8003300000
000002FD02DFFB0000
00000CF31DF55F8000
00007F908F600ED000
0003FD10EE000DD000
000CF403F9001FC000
008FA004F7005F8000
04FE2004F700CF2000
1DF70001FC39F90000
9FD000008FFFA00000
650000000463000000
ENDCHAR
STARTCHAR ampersand
ENCODING 38
SWIDTH 460 0
DWIDTH 13 0
BBX 14 23 -2 -2
BITMAP
00000000029C80
000000005FB9F5
00000003F802F7
0000000CF107F3
0000002FD04FB0
0000006FB4EE20
0000007FDEF400
0000008FFF5000
0000009FF60000
000005FFB00000
00005FFFC00000
0004FFEFE00000
002EFA7FF10000
01DFD15FF30000
08FF304FF60000
1EF9001FF90002
4FF3000EFC006C
5FF0000AFF19D1
5FF40007FFEB10
1EFE6459FFD000
06FFFFFFEFF600
003898517FFC10
00000000043000
ENDCHAR
STARTCHAR quotesingle
ENCODING 39
SWIDTH 113 0
DWIDTH 3 0
BBX 5 9 1 12
BITMAP
003820
03FE00
07FA00
0BF600
0EF200
3FD000
7F9000
AF5000
991000
ENDCHAR
STARTCHAR parenleft
ENCODING 40
SWIDTH 234 0
DWIDTH 7 0
BBX 9 27 0 -4
BITMAP
00000005C0
0000006F90
000003FC10
00001DE200
00007F8000
0001EE1000
0007F80000
000DF20000
004FC00000
009F700000
00EF200000
03FD000000
07FA000000
0BF6000000
0EF4000000
2FF1000000
4FE0000000
5FC0000000
6FA0000000
6FA0000000
6F90000000
5F90000000
2FA0000000
0ED0000000
08F1000000
01C0000000
0010000000
ENDCHAR
STARTCHAR parenright
ENCODING 41
SWIDTH 204 0
DWIDTH 6 0
BBX 9 27 -3 -4
BITMAP
000000B100
000001F700
000000ED00
000000BF10
000000AF40
0000009F50
000000AF60
000000AF50
000000CF50
000000EF30
000001FF10
000004FE00
000006FB00
00000AF700
00000DF300
00002FE000
00007F9000
0000CF4000
0002FD0000
0008F70000
001EE10000
007F800000
02ED100000
1CF4000000
9F60000000
C500000000
1000000000
ENDCHAR
STARTCHAR asterisk
ENCODING 42
SWIDTH 327 0
DWIDTH 9 0
BBX 10 10 1 11
BITMAP
0000131000
00007FF300
07407FC000
3FF47F4044
5DFFCD8EFA
0028FEBBB7
007ECF6000
1CFF3CF700
0AF908FF30
008102D500
ENDCHAR
STARTCHAR plus
ENCODING 43
SWIDTH 350 0
DWIDTH 10 0
BBX 11 10 -1 5
BITMAP
000001AB0000
000006FA0000
00000AF60000
00123DF53200
09FFFFFFFF90
1FEDDFDAAA30
02009F700000
0000CF400000
0001FF100000
000195000000
ENDCHAR
STARTCHAR comma
ENCODING 44
SWIDTH 200 0
DWIDTH 6 0
BBX 4 6 -1 -4
BITMAP
4EF4
CFF7
6DF4
0AC0
4D20
4100
ENDCHAR
STARTCHAR hyphen
ENCODING 45
SWIDTH 353 0
DWIDTH 10 0
BBX 11 3 -1 7
BITMAP
069ABBCCBA40
3FFFFFFFFF40
485432111100
ENDCHAR
STARTCHAR period
ENCODING 46
SWIDTH 213 0
DWIDTH 6 0
BBX 4 4 -1 -1
BITMAP
0010
3CFC
CFF9
5960
ENDCHAR
STARTCHAR slash
ENCODING 47
SWIDTH 262 0
DWIDTH 7 0
BBX 14 22 -3 -1
BITMAP
00000000000166
00000000000CF4
00000000007FA0
0000000001EF20
0000000009F700
000000002FD000
00000000AF4000
00000004FB0000
0000000CF20000
0000006F800000
000001DE100000
000007F7000000
00001ED0000000
00009F60000000
0003FD00000000
000BF600000000
004FD000000000
00CF6000000000
06FD0000000000
1DF70000000000
7FE10000000000
55100000000000
ENDCHAR
STARTCHAR zero
ENCODING 48
SWIDTH 489 0
DWIDTH 14 0
BBX 13 22 0 -1
BITMAP
00000004882000
000001AFFFE200
00000BFB38F900
00009FD100DF10
0004FF3000AF40
000CFA00009F60
004FF300008F80
00AFC000009F80
01FF700000AF80
05FF200000CF60
09FD000000EF40
0DFA000002FF20
1FF8000006FE00
2FF600000BFA00
2FF600001FF600
1FF500007FE100
0FF50000DF8000
0CF70006FE1000
08FB002EF50000
02FF43DF800000
008FFFE7000000
00069720000000
ENDCHAR
STARTCHAR one
ENCODING 49
SWIDTH 272 0
DWIDTH 8 0
BBX 8 22 0 -1
BITMAP
00000320
00007FE1
0008FFF1
001EFFB0
0002EF80
0001FF40
0003FF10
0006FC00
0009F800
000CF400
001FF100
004FC000
007F8000
00BF4000
01FF1000
04FC0000
09F80000
0DF50000
3FF40000
7FF30000
8FF40000
16510000
ENDCHAR
STARTCHAR two
ENCODING 50
SWIDTH 448 0
DWIDTH 13 0
BBX 14 22 -1 -1
BITMAP
00000002789500
000001AE9AFF70
00002DE300AFE0
0001DF70007FF1
0007FF10007FF1
000BFD00009FE0
0006FC0000DFA0
0000000003FF40
000000000BFC00
000000004FF300
00000001DF7000
0000000BFA0000
0000009FC10000
00000AFC100000
0001BFC1000000
001CFC10000000
01DFA000000000
0BFA0000000000
7FE25899961000
AFEFFFFFFF9000
4FFECBCDFF7000
07500000162000
ENDCHAR
STARTCHAR three
ENCODING 51
SWIDTH 462 0
DWIDTH 13 0
BBX 14 22 -1 -1
BITMAP
00000016897200
000008FFFEFF50
0000AFF7106FE1
0006FF50000EF5
000BFD00000FF6
000CFC00003FF3
0008FF40009FD0
0000320003FF50
000000002DF900
00000003DFA000
0000018FF60000
00000EFFEB4000
000007735EF400
0000000009FA00
0000000007FB00
000000000AF900
003400000EF600
1DFA00006FE100
1FFC0001DF7000
0CFF824DFA0000
02DFFFFF900000
0017AA83000000
ENDCHAR
STARTCHAR four
ENCODING 52
SWIDTH 452 0
DWIDTH 13 0
BBX 12 22 0 -1
BITMAP
000000000145
00000001AEFD
00000008FFFA
0000004FE9F6
000002EF4AF2
00001DF70ED0
0001CF902FA0
000AFB006F60
009FD100BF30
08FE2000EF00
8FF40004FC00
EFDABCEFFFE1
AFFFFEDFFFF2
1852000FF690
0000004FF100
0000008FE000
000000BFC000
000000FFA000
000003FF9000
000006FF8000
000006FF7000
000001850000
ENDCHAR
STARTCHAR five
ENCODING 53
SWIDTH 444 0
DWIDTH 12 0
BBX 13 22 0 -1
BITMAP
00000002344300
00007CFFFFFFD0
0000DFFFFFFFD0
0002FA00149F80
0007F400000310
000BE000000000
001FA000000000
006F6000000000
00BF1179820000
01FD5EFFFE1000
05FEFE89FF6000
06FFC1009F8000
01AA10006F8000
000000006F6000
000000009F3000
01300000DD0000
2D800005F70000
CFB0001DE10000
FFF614CF500000
BFFFFFF8000000
2EFFFF70000000
029A8200000000
ENDCHAR
STARTCHAR six
ENCODING 54
SWIDTH 477 0
DWIDTH 13 0
BBX 12 22 1 -1
BITMAP
000000058710
000003DFEFB0
00003EE42FF1
0001EF402FF1
000BF8006FE0
005FE100AB30
00CF70000000
04FE10120000
0BFA2BFFD300
1FF8EE67FD00
6FFEF500BF50
AFFFB0009F70
DFDF4000AF80
FF930000CF70
FF800001FF50
EF700006FF10
DF70000BFA00
BFA0002FF300
6FD000BF9000
1EF719FC1000
05FFFFB10000
004995000000
ENDCHAR
STARTCHAR seven
ENCODING 55
SWIDTH 406 0
DWIDTH 11 0
BBX 12 22 1 -1
BITMAP
000134456530
03DFFFFFFFF5
09FFFDBAACF7
0BD610000BF4
030000007F90
00000003FD10
0000001DF400
0000009FA000
000004FE2000
00000DF70000
00007FD10000
0001EF600000
0009FD000000
002FF7000000
009FE1000000
01FF80000000
07FF30000000
0DFC00000000
4FF800000000
7FF500000000
8FF500000000
153000000000
ENDCHAR
STARTCHAR eight
ENCODING 56
SWIDTH 444 0
DWIDTH 12 0
BBX 14 22 -1 -1
BITMAP
00000001688300
0000005ED89F70
000004FB0007F1
00000DF20005F4
00005FD00009F2
00008FC0004FC0
00009FE002EF30
00007FF43EF700
00003FFCEF8000
00000AFFF60000
00001BFFE10000
0002CFBFF80000
001CF80BFE1000
00BFA004FF6000
05FE1000EFA000
0DF60000CFB000
2FE10000BFB000
4FD00000DF8000
3FD00004FF2000
0EF3004EF70000
05FEBCFF700000
00279A72000000
ENDCHAR
STARTCHAR nine
ENCODING 57
SWIDTH 462 0
DWIDTH 13 0
BBX 13 22 0 -1
BITMAP
00000016860000
000007EFCFB000
00007FD205F600
0004FE2000FB00
000DF60000DE00
005FD00000CF10
00BF700000DF20
01FF300009FF10
03FF00002FFF00
04FD00007FFD00
04FD0000DEFB00
02FF1007FAF700
00EF804F9AF400
007FFEFA2FE000
0007BB508F9000
00000002EF2000
0400000AF90000
1E40007FE20000
5FB007FF500000
6FFEEFF7000000
1CFFFE60000000
01796100000000
ENDCHAR
STARTCHAR colon
ENCODING 58
SWIDTH 226 0
DWIDTH 6 0
BBX 6 9 -1 -1
BITMAP
006CB2
03FFF4
02CC60
000000
000000
001000
3CFC00
CFF900
596000
ENDCHAR
STARTCHAR semicolon
ENCODING 59
SWIDTH 212 0
DWIDTH 6 0
BBX 5 12 -1 -4
BITMAP
019C80
09FFD0
06DB30
000000
000000
000000
4EF400
CFF700
6DF400
0AC000
4D2000
410000
ENDCHAR
STARTCHAR less
ENCODING 60
SWIDTH 271 0
DWIDTH 8 0
BBX 10 12 -1 3
BITMAP
0000001572
000005EF80
00007FF600
0009FE5000
01BFE30000
1DFE300000
1EF7000000
07FE100000
00DF900000
005FF30000
000BFC0000
0002BC3000
ENDCHAR
STARTCHAR equal
ENCODING 61
SWIDTH 374 0
DWIDTH 10 0
BBX 12 7 -1 6
BITMAP
000235555430
008FFFFFFFF4
00ECB9988870
001000000000
04BDEFFFED20
0EFFFEEDDC00
163100000000
ENDCHAR
STARTCHAR greater
ENCODING 62
SWIDTH 250 0
DWIDTH 7 0
BBX 9 12 -2 3
BITMAP
0004740000
0005FF3000
0000BFC000
00003FF500
000009FD00
000001EF70
000004EFB0
00004EFB10
0006FF9000
007FF70000
09FE400000
7B82000000
ENDCHAR
STARTCHAR question
ENCODING 63
SWIDTH 413 0
DWIDTH 12 0
BBX 14 22 -1 -1
BITMAP
00000048AA8400
00004DFFEFFFA1
0008FF92004EF8
003FF9000008FE
005FF3000007FE
002EF400000AFB
00012100001EF6
00000000008FE1
0000000004FF40
000000005FF600
0000026CFE5000
0003DFFF920000
000BFD61000000
000EF700000000
003FF300000000
007FE000000000
00BF8000000000
00A60000000000
00000000000000
09EE4000000000
5FFF6000000000
2AC70000000000
ENDCHAR
STARTCHAR at
ENCODING 64
SWIDTH 648 0
DWIDTH 18 0
BBX 19 19 -1 -1
BITMAP
000000038BDEDA400000
000003BFD85459FA1000
00006FE60000003EB000
0007FD2000572004F700
005FD2004DFFE660BE10
01EF3005FB3AFED06F50
09F9005FA00DFF903F80
1EF102EC005CDF302FA0
5FB00BF30001FB002FA0
9F603FB00005F5004F80
AF408F60000CE0007F60
AF30AF40007F8000DF10
9F50AF7006FF2005FA00
5FA05FFBDEEC001DF300
0DF307CD93F800AF7000
05FD200003FA3BF90000
006FD60001EFFF700000
0002AFEA102761000000
00000156000000000000
ENDCHAR
STARTCHAR A
ENCODING 65
SWIDTH 552 0
DWIDTH 15 0
BBX 17 28 -3 -7
BITMAP
000000000000058710
000000000003DFFFB0
00000000004EE62FE0
0000000002EE300FD0
000000000CF4002FB0
000000007FB0005F90
00000001EF30008F60
00000008FC0000CF40
0000000EF50000FF20
0000005FE00003FE00
000000BF900006FC00
000002FF40000AF900
000007FE00000DF700
00000CF900001FF400
00002FF856546FF200
0004BFFFFFFFFFFD80
18EFFFECBABDFFFD10
2867FF800000BFC100
0009FF400000EF8000
000EFE000001FF6000
005FFB000003FF4000
00AFF7000006FF3000
01FFF3000007FF3000
07FFC0000008FF4000
1EFF50000008FF6000
ADA500000006FFA000
000000000004FFC100
000000000000620000
ENDCHAR
STARTCHAR B
ENCODING 66
SWIDTH 607 0
DWIDTH 17 0
BBX 18 27 -1 -6
BITMAP
00000006EA89741000
0000028EFFEDFFE600
00019FFFF5001AFF60
0006FFEFE00000EFE1
0005F8BFA00000BFF3
000020EF500000AFF4
000004FF100000DFF1
000008FB000003FFB0
00000CF700000AFF30
00002FF300004FF800
00006FE00002EFB000
0000AFA0112DFB1000
0000EFACFFFFA00000
0003FFEFFFCEE40000
0008FD5C9304FF3000
000CFA0000008FD000
001FF60000004FF500
005FF30000003FF900
009FE00000005FF900
00EFB00000009FF600
03FF80000001EFF200
07FF4000000AFF9000
0BFF1000009FFD1000
1FFD00002BFFC20000
1FFD657BFFF8100000
06CFFFFFC720000000
000123200000000000
ENDCHAR
STARTCHAR C
ENCODING 67
SWIDTH 548 0
DWIDTH 15 0
BBX 16 27 0 -6
BITMAP
00000000058A8200
00000006EFDCFF40
000000AFE6006FE1
00000BFF40001FF4
00008FF600002FF6
0004FFB000004FF7
000CFF2000009FF5
005FF9000001EFF2
00CFF200001DFFC0
04FFB0000009FE20
09FF600000003100
0EFF100000000000
3FFC000000000000
7FF9000000000000
AFF6000000000000
CFF3000000000000
EFF2000000000000
FFF1000000000000
FFE0000000000000
EFF0000000001000
BFF10000000A7000
7FF50000006E1000
2FFB000005F60000
08FF9103AF900000
00BFFFFFF9000000
0007DFFC50000000
0000010000000000
ENDCHAR
STARTCHAR D
ENCODING 68
SWIDTH 632 0
DWIDTH 18 0
BBX 18 27 -1 -6
BITMAP
000000157874000000
000019EFFFFFE60000
0000CFFEA89CFFB100
0000ED5000005FFA00
00007104200006FF50
000004CF600000DFC0
000009FF4000007FF3
00000BFF1000004FF6
00000DFD0000002FF9
00001FFA0000002FFA
00003FF70000003FFA
00006FF30000005FFA
00009FF00000007FF8
0000CFC0000000AFF5
0000FF80000000EFF1
0004FF40000003FFB0
0007FE00000008FF50
000BFB0000001EFD00
000EF70000008FF500
004FF2000002EFB000
009FD000000CFE2000
00DF9000009FF50000
04FF400019FF600000
0CFF1004CFE5000000
1CFFDBDFFB20000000
007DFFEA4000000000
000011000000000000
ENDCHAR
STARTCHAR E
ENCODING 69
SWIDTH 523 0
DWIDTH 15 0
BBX 16 27 -1 -6
BITMAP
0000000003789610
00000005CFFCBFD2
000001AFF81006FA
00001BFE400003FF
00009FF6000004FF
0003FFC0000009FC
0008FF6000003FF7
000CFF300005EFE1
000DFF200006CD40
000CFF3000000000
0007FF8000000000
0000CFE200000000
00001BFD78500000
000029FFFFD00000
0008FE7379300000
00BFD20000000000
09FE200000000000
3FF8000000000000
8FF3000000000600
BFF1000000007900
CFF300000002E400
BFF70000000CC000
6FFE100000BF3000
0DFFC4004DF60000
02DFFFFFFF600000
0017DFFEA2000000
0000001000000000
ENDCHAR
STARTCHAR F
ENCODING 70
SWIDTH 585 0
DWIDTH 16 0
BBX 16 26 1 -5
BITMAP
0000014678875100
0017CFFFFFFFFE60
05EFE9642113BFF1
4FFA100000003FF2
BFF4000000005FD0
CFFC66100000AF70
5FFFF7000002FE10
04BE90000009F800
00000000002FE100
00000000009F9000
0000000002FF2000
002467899CFD6410
01EFFFFFFFFFFE20
04FC8543AFD44200
01100002FF600000
00000008FE100000
0000001EF9000000
0000007FF4000000
000000EFD0000000
000005FF80000000
00000AFF30000000
00000EFE00000000
00004FFC00000000
00007FFB00000000
00009FFA00000000
00009FC700000000
ENDCHAR
STARTCHAR G
ENCODING 71
SWIDTH 612 0
DWIDTH 17 0
BBX 16 27 0 -6
BITMAP
0000000001699500
000000008FFDEF80
0000001CFC302FF2
000001CFC1000CF7
00000BFE20000BF8
00007FF600000DF8
0002FFC000003FF7
0009FF500000CFF3
002FFD00000BFFD0
009FF8000007FF50
01EFF20000005400
05FFC00000000000
0AFF800000000000
0EFF400000000000
2FFF10048ACDEFFE
5FFC000DFFFFFFF9
7FF900022101FF30
8FF700000004FE00
8FF600000009F900
8FF50000001EF300
5FF50000007FB000
2FF7000002EF3000
0CFA00000BF70000
05FF2000AFA00000
009FD55CFA100000
0008FFFE70000000
0000144100000000
ENDCHAR
STARTCHAR H
ENCODING 72
SWIDTH 649 0
DWIDTH 18 0
BBX 20 27 -1 -6
BITMAP
00000001410000000000
0000005EF30000005EF4
000000CFD0000000DFE0
000001FF90000003FF90
000004FF50000007FF40
000008FF1000000BFE00
00000BFC0000000EF900
00000EF80000004FF400
00003FF40000007FE000
00007FE0000000BFA000
0000AFB0000000FF6000
0000EF70000004FF1000
0003FF879ABCDEFFB810
003CFFFFFEEFFFFFFD10
009EFC6AFC101FFAD300
000DF8004FB04FE00000
002FF40006F67FB00000
005FF20000CDAF700000
009FE000005FEF400000
00CFB000001FFF100000
01FF9000000EFC000000
05FF6000000EFA000000
08FF3000000FF7000000
0CFF1000002FF5000000
1FFE0000005FF3000000
3FF90000004A91000000
02100000000000000000
ENDCHAR
STARTCHAR I
ENCODING 73
SWIDTH 537 0
DWIDTH 15 0
BBX 18 27 -3 -6
BITMAP
000000000000037600
000000000002BFFF60
00000000003EFB5F90
0000000001DFC16F90
0000000008FF308F90
000000000EFC00AF80
000000004FF700DF60
000000006FF301FF40
000000007FF005FF20
000000006FE009FE00
000000004FD00DFB00
000000001FE01FF700
000000000CF25FF400
0000000004D19FE000
000000000000DFA000
0000001579BCFFEDC7
00006CFFFFDEFF7772
003DFFD9410CFA0000
03EFE500001FF40000
0BFF3000006FD00000
1FFC000000BF700000
0FFD000002FE100000
0AFF40000AF7000000
02EFD2003FC0000000
004EFE86ED20000000
00029EFFA200000000
000000100000000000
ENDCHAR
STARTCHAR J
ENCODING 74
SWIDTH 500 0
DWIDTH 14 0
BBX 20 27 -3 -6
BITMAP
00000000002456765310
000000000DFFFFFFFFF6
000000000FDB99FFAAC4
00000000020005FF1000
00000000000009FD0000
0000000000000DF90000
0000000000002FF60000
0000000000006FF30000
000000000000AFE00000
000000000000EFB00000
000000000003FF800000
000000000007FF400000
00000000000BFF100000
000017A1000EFC000000
0001CFF9003FF9000000
000CFFF9007FF6000000
007FFC3000BFF2000000
01EFC10001FFC0000000
08FE100005FF70000000
0DF700000AFF20000000
1FF200001EF900000000
3FE000006FF300000000
3FE00000DF8000000000
1FF20008FC0000000000
07F9007FD20000000000
008FEEFA100000000000
00025520000000000000
ENDCHAR
STARTCHAR K
ENCODING 75
SWIDTH 497 0
DWIDTH 14 0
BBX 17 29 -2 -8
BITMAP
000000027500000350
0000003FF70000AFF0
0000008FF20000BFE0
000000DFB00000DFC0
000003FF600003FF90
000007FF100009FF30
00000CFB00002FFB00
00001FF70000AFF300
00005FF20006FF7000
00009FC0002EFA0000
0000DF8002DFB00000
0001FF402DFA100000
0005FF14DF80000000
0008FDAFC300000000
003DFFFEBB93000000
007FFB88AFFE300000
004FF30004FF900000
007FE00000EFA00000
00AFC00001FF800000
00EF900004FF500000
02FF60000AFE100000
06FF40001EFA000000
0AFF20006FF4000000
0DFF1000AFD0000000
2FFF1000CFB0000000
4FC70000BFC0000000
000000004FF7000000
0000000006FFDCE600
000000000028A83000
ENDCHAR
STARTCHAR L
ENCODING 76
SWIDTH 492 0
DWIDTH 14 0
BBX 18 27 -3 -6
BITMAP
000000000000005871
0000000000002CFFF9
000000000001CFEDFD
000000000008FE34FD
00000000001EF807FA
00000000006FF21DF4
0000000000BFD0AFB0
0000000000EFBBFE20
0000000002FFFFE300
000272124AFFFC2000
0001DFFFFFFE600000
000017AAAEFA000000
000000001FF6000000
000000004FF2000000
000000008FD0000000
00000000CF90000000
00000002FF50000000
00000006FE00000000
0000000BF800000000
0000002FF200000000
0000009F9000000000
06CFFDFE2000000000
6FFEEFFE5000000200
BF92AFEFFB30028B00
9FFFE619FFFEEFF700
068610003BFFFFC100
000000000026861000
ENDCHAR
STARTCHAR M
ENCODING 77
SWIDTH 733 0
DWIDTH 21 0
BBX 24 27 -3 -6
BITMAP
000000000002500000000340
0000000000AFF2000002CFF3
0000000004FFF300000AFFF2
000000000AFFF400003FFFF0
000000001FEDF40000AFAFD0
000000006FABF50002FE6FA0
00000000BF6BF50009F89F70
00000001FF2CF4002FE1CF30
00000006FD0EF3008F91FF00
0000000BFA0FF101EF25FC00
0000001FF62FF006F909F800
0000005FF23FE00DF30CF500
0000009FE05FD04FB01FF200
000000CFA06FB0BF405FE000
003E01FF707FB2FD008FB000
01D904FF307FB8F700CF8000
08F207FE007FCEF101FF5000
1EB00AFB007FFFB004FF2000
5F700DF8006FFF5007FE0000
9F402FF4004FFF200AFC0000
BF207FF1001FFF000DFA0000
BF20BFC0000AF9001FF90000
BF42FF80000010004FFA0000
9F99FF40000000004FFD0000
3FFFFC00000000001EFF5000
06EFD2000000000005EFE500
000100000000000000010000
ENDCHAR
STARTCHAR N
ENCODING 78
SWIDTH 541 0
DWIDTH 15 0
BBX 20 26 -2 -5
BITMAP
00000002000000005970
000002CF8000000BFFF7
000006FFA000007FF9DA
00000AFFC00000DFA0BA
00000DFFD00003FF21E8
00001FEFE00008FC07F3
00005FAFF0000CF83FA0
00008F6EF1000FF9ED10
0000CF2CF10AAFFFC200
0001FE0BF2019FE50000
0004FB09F2008FB00000
0008F809F200AF800000
000CF408F300CF600000
001FF107F300EF300000
004FE007F402FF100000
008FB006F505FD000000
00CF8006F708FA000000
01FF6005F80BF8000000
04FF3004FA0EF5000000
07FF1002FC2FF1000000
0AFF0000FE6FD0000000
0DFF0000DFDF90000000
1FFF00009FFF50000000
2FFF00006FFF10000000
1FFF20001FFD00000000
09EB200008C400000000
ENDCHAR
STARTCHAR O
ENCODING 79
SWIDTH 567 0
DWIDTH 16 0
BBX 15 27 0 -6
BITMAP
00000004BD751000
0000007FFFFFD100
000006FFF92DF700
00003FF76007FC00
0000DFB00004FF10
0007FF200002FF40
001EF9000001FF50
007FF2000000FF60
00CFB0000000FF70
03FF60000000FF70
08FF10000001FF60
0CFC00000002FF50
1FF900000004FF40
4FF600000006FF20
6FF400000009FE00
8FF20000000DFB00
AFF00000001FF600
AFE00000006FF100
BFE0000000BFC000
AFE0000002FF5000
9FE0000009FD0000
7FF100002FF60000
3FF40000BFB00000
0CF90009FD200000
03FF75BFD2000000
004EFFF910000000
0000441000000000
ENDCHAR
STARTCHAR P
ENCODING 80
SWIDTH 552 0
DWIDTH 15 0
BBX 18 26 -2 -5
BITMAP
000000001589A96100
0000004BFFDBDFFD30
00003CFFF40004EFD1
0004FFDDF300005FF7
0006FB2FE000000EFB
0001804FA000000CFD
0000008F7000000DFD
000000CF3000000FFB
000001FE0000004FF7
000005FB000000AFF1
000009F8000004FF80
00000DF400001DFC00
00002FF10001DFE200
00006FD0005EFC2000
0000AFB16CFF810000
0000EFEFFD82000000
0003FF952000000000
0007FF200000000000
000BFE000000000000
000EFB000000000000
003FF7000000000000
008FF4000000000000
00DFE0000000000000
04FFA0000000000000
1DFF40000000000000
19C700000000000000
ENDCHAR
STARTCHAR Q
ENCODING 81
SWIDTH 583 0
DWIDTH 16 0
BBX 16 27 0 -6
BITMAP
0000000048972000
0000004DFFEFE400
000006FFB207FE10
00006FFA0000BF70
0002FFC000005FC0
000BFF2000002FF1
004FF80000001FF3
00BFF10000001FF4
02FFA00000001FF5
07FF400000003FF3
0BFF100000005FF2
0FFB000000008FE0
2FF900000000CFB0
4FF700000002FF70
4FF600000006FF20
2FF70000000CFD00
0DFB0000003FF800
06FF500000AFF200
00AFFA0002FF9000
000451000AFE1000
000489734FF60000
00AFFFFFFFB00000
08FF624FFF400000
0DF803CFEFE40000
0BFECFFB15EF8100
03DFFD600029FEB1
0001100000001310
ENDCHAR
STARTCHAR R
ENCODING 82
SWIDTH 560 0
DWIDTH 16 0
BBX 18 28 -1 -7
BITMAP
0000000158AA971000
000004BFFDBCFFE400
0002BFFF60002CFE20
002EFECF500002FFA0
002FD2DF200000BFE0
000812FD0000009FF1
000005FA0000009FF1
000009F6000000CFE0
00000DF3000001FFA0
00002FF0000006FF40
00006FC000001DFC00
0000AF900000AFE200
0001DF600009FF5000
004EFFFA24CFE50000
00BFFF6EFFFC200000
007FFFFFFF50000000
000DFC64AF60000000
002FF7004FB0000000
006FF4000FF0000000
009FF1000EF3000000
00DFD0000DF6000000
02FF90000CF9000000
07FF50000BFB000000
0DFF10000BFC000000
8FFA000009FF000000
4BA1000006FFA56100
0000000001EFFF6000
00000000003AB40000
ENDCHAR
STARTCHAR S
ENCODING 83
SWIDTH 474 0
DWIDTH 13 0
BBX 16 27 -2 -6
BITMAP
0000000038ABA610
0000001AFFEBCFC1
000002DFE7100DF7
00000CFE300009FB
00006FF4000009FC
0000BFB000000CFB
0000EF9000002FF8
0000EFB000008FE2
0000BFF200007720
00006FFA00000000
00000DFF70000000
000004FFF6000000
0000006FFF400000
00000009FFD00000
00000000CFF60000
000000003FFB0000
000000000BFE0000
0000000006FF0000
0002100003FE0000
06EE100003FC0000
2FFA000005F90000
4FFA00000BF40000
2FFD00004FC00000
0CFF6002DF400000
03FFFAAEF7000000
006EFFFD50000000
0001453000000000
ENDCHAR
STARTCHAR T
ENCODING 84
SWIDTH 423 0
DWIDTH 12 0
BBX 16 26 0 -5
BITMAP
0000123444432000
07CEFFFFFFFFFFE1
1FFFFFEFFDBBBB90
1DA7414FF6000000
0000007FF1000000
000000BFC0000000
000000EF80000000
000003FF40000000
000007FE00000000
00000AFB00000000
00000EF700000000
00002FF300000000
00006FE000000000
0000AFB000000000
0000DF7000000000
0002FF4000000000
0005FF1000000000
0009FD0000000000
000CFB0000000000
001FF80000000000
004FF50000000000
008FF30000000000
00BFF00000000000
00EFD00000000000
03FFB00000000000
06FD500000000000
ENDCHAR
STARTCHAR U
ENCODING 85
SWIDTH 574 0
DWIDTH 16 0
BBX 18 27 0 -6
BITMAP
000000010000000440
00002AED000002DFE1
0000AFF8000006FFA0
0000EFF200000AFF40
0004FFB000000EFE00
0009FF6000003FFA00
000DFF1000007FF500
002FFB000000BFF100
006FF6000000EFB000
00AFF1000003FF7000
00EFC0000007FF2000
02FF8000000BFD0000
06FF4000000EF80000
09FE0000002FF40000
0CFA0000006FF10000
0FF70000009FD00000
3FF4000000DFA00000
5FF1000002FF800000
7FE0000008FF500000
9FD000000EFF400000
AFC000005FFF200000
AFD00000DFFF100000
9FF10008FBFF100000
6FF8007FC3FF200000
1EFFEEFC11FF500000
03CFFE70007C600000
000110000000000000
ENDCHAR
STARTCHAR V
ENCODING 86
SWIDTH 503 0
DWIDTH 14 0
BBX 15 27 1 -6
BITMAP
0002200000003400
009FF4000001EF50
01FFC0000007FFA0
04FF6000000DFE10
08FF1000004FF600
0BFC000000AFE100
0EF8000001FF9000
2FF4000006FF3000
4FF100000BFD0000
6FE000001FF80000
8FC000006FF30000
9FB00000BFD00000
AF900001FF800000
BF800005FF300000
BF80000AFD000000
AF80000EF7000000
9F80004FF2000000
8F90009FB0000000
7F9000EF50000000
5FA003FE00000000
3FC008F800000000
0FE00DF100000000
0CF24F9000000000
07FBDF2000000000
02FFF90000000000
008FD10000000000
0003100000000000
ENDCHAR
STARTCHAR W
ENCODING 87
SWIDTH 817 0
DWIDTH 23 0
BBX 23 27 0 -6
BITMAP
000001440000000000028B20
00004EFB00000000000BFF50
0000BFF200007F300009FF70
0002FF900005FF400007FF60
0007FF20000CFF200007FF50
000CFB00002FFE000007FF40
002FF500006FFA000007FF20
007FF100008FF7000008FF00
00BFB00000AFF3000009FD00
01FF600000BFE000000BFA00
04FF200000CFA000000EF700
07FD000000CF6000002FF400
0BF9000001EF4000005FF100
0DF6000005FF1000009FB000
0FF300000AFE000000DF7000
2FF100001FFD000002FF2000
3FE000006FFC000007FC0000
4FC00000BFFB00000CF70000
4FC00002FDFB00002FF10000
4FC00009F6FC00008F900000
3FD0002FE1FD0001EF200000
1FE0009F70DE0007FA000000
0DF403FD10BF302EE2000000
09FC5DF5008FA3CF60000000
03FFFF80003FFFFA00000000
007FF800000AFF9000000000
000210000000320000000000
ENDCHAR
STARTCHAR X
ENCODING 88
SWIDTH 579 0
DWIDTH 16 0
BBX 21 27 -2 -6
BITMAP
000007BA20000000005600
0000AFEFD10000000AFF90
0005F51EF6000000AFFC50
000CE008FB000007FFB100
000FD003FE00003FFC1000
000FF300FF2001DFD10000
000CFE77EF4009FF300000
0004FFFFDF604FF6000000
00006EF67F91DFB0000000
000000105FB8FE10000000
000000003FEFF600000000
000000002FFFB000000000
000000000FFE2000000000
000000003FF60000000000
00000000CFF30000000000
00000008FFF40000000000
0000003FFEF60000000000
000000CFB8F70000000000
000007FE26FA0000000000
00003FF704FC0000000000
0000CFD002FF1000000000
0007FF4000EF5000000000
003FFA0000AFA000056000
02DFE200005FF2008D1000
2EFF6000000DFEADD30000
049600000003DFF9100000
0000000000000100000000
ENDCHAR
STARTCHAR Y
ENCODING 89
SWIDTH 532 0
DWIDTH 15 0
BBX 16 27 0 -6
BITMAP
0000146100000276
0001EFE000001FFC
0006FF9000005FF7
000AFF3000008FF3
000EFD000000CFD0
003FF8000000FF90
007FF3000003FF50
00BFD0000007FF10
00EF9000000AFC00
03FF4000000EF800
06FF1000004FF400
09FC000000AFF100
0CF9000002FFC000
0EF6000009FF8000
1FF500004FFF4000
0FF60002EDCF1000
0DFD315EE3FC0000
07FFFFFC35F80000
007CDB600AF40000
000000001EE00000
000000007F900000
00100002EF200000
1BC1001CF9000000
9FFD67DFD1000000
AFFFFFFC20000000
19EFFC7000000000
0001000000000000
ENDCHAR
STARTCHAR Z
ENCODING 90
SWIDTH 455 0
DWIDTH 13 0
BBX 17 26 -3 -5
BITMAP
000000013455544210
000002EFFFFFFFFFA0
000009FFFFEDCCEFC0
00000BC7410000CFC0
00000100000002FF80
0000000000000AFF20
0000000000005FF900
000000000001EFD100
00000000000BFF4000
00000000007FF80000
0000000004FFB00000
000000002EFD100000
00000001CFE2000000
0000000AFF40000000
0000007FF700000000
000004FF9000000000
00002EFC0000000000
0000CFE20000000000
0007FF400000000000
002FF7000000000000
00BFB0000000000000
04FF20000000000000
0CF902567764200000
3FFBEFFFFFFFF60000
1FFFFFFFFFFFC00000
0BB85434579A100000
ENDCHAR
STARTCHAR bracketleft
ENCODING 91
SWIDTH 202 0
DWIDTH 6 0
BBX 11 28 -2 -4
BITMAP
000000013310
0000003FFF40
000000AFFC10
000000EF3000
000004FA0000
000008F60000
00000CF20000
00001FC00000
00005F800000
0000AF400000
0000DF100000
0002FC000000
0006F8000000
000AF4000000
000DF1000000
002FC0000000
005F80000000
009F40000000
00CF10000000
00FD00000000
03F900000000
07F600000000
0AF300000000
0DF100000000
1FF000000000
3FFB60000000
2FFF90000000
011100000000
ENDCHAR
STARTCHAR backslash
ENCODING 92
SWIDTH 273 0
DWIDTH 8 0
BBX 6 22 1 -1
BITMAP
382000
DF5000
BF7000
9F8000
7FA000
4FB000
2FD000
0FF000
0DF200
0AF400
08F600
06F800
04FA00
01FD00
00EF10
00CF40
00AF70
007FB0
005FE0
003FF2
001FF6
000551
ENDCHAR
STARTCHAR bracketright
ENCODING 93
SWIDTH 216 0
DWIDTH 6 0
BBX 10 28 -3 -4
BITMAP
0000001231
000000FFFC
0000017DFD
00000005FA
00000006F7
00000009F4
0000000CF1
0000000FD0
0000003FA0
0000007F60
000000AF30
000000EE00
000002FB00
000006F700
00000AF400
00000DF100
00002FB000
00006F8000
0000AF4000
0000EE0000
0003FB0000
0007F70000
000CF20000
001FD00000
008F900000
6EFF400000
AFFC000000
2220000000
ENDCHAR
STARTCHAR asciicircum
ENCODING 94
SWIDTH 287 0
DWIDTH 8 0
BBX 10 11 -1 10
BITMAP
0000001420
000004FFC0
00001DFFD0
00008F9DF0
0002FE1CF1
000AF60BF3
004FC00AF5
00DF4009F7
07FA0008F9
2EE10007FB
6B500004E9
ENDCHAR
STARTCHAR underscore
ENCODING 95
SWIDTH 439 0
DWIDTH 12 0
BBX 15 4 -3 -1
BITMAP
0000011111000000
8DEFFFFFFFFECA10
FFFFFFFFFFFFFE10
4432110001124200
ENDCHAR
STARTCHAR grave
ENCODING 96
SWIDTH 567 0
DWIDTH 16 0
BBX 5 5 7 15
BITMAP
010000
9F9100
7EFC20
019FD0
000270
ENDCHAR
STARTCHAR a
ENCODING 97
SWIDTH 435 0
DWIDTH 12 0
BBX 16 13 -1 -1
BITMAP
0000005720000000
00003DFFD0000000
0004ED5FE0000000
002EE21AED000000
00CF7003FB000000
06FD0006F8000055
0CF7000AF50003E2
2FF4000EF1001D50
5FF2007FD000C900
6FF207EEB00AC000
5FFDDF6CE3AD1000
0DFFD507FFD20000
0153000044000000
ENDCHAR
STARTCHAR b
ENCODING 98
SWIDTH 415 0
DWIDTH 12 0
BBX 15 21 0 -1
BITMAP
0000299000000000
0000CFC000000000
0005FFA000000000
000BFF7000000000
002FFF3000000000
007FFE0000000000
00CFF90000000000
02FFF50000000000
06FFE00000000000
0AFF900100000000
0EFF308F90000110
2FFB02FFF136BE30
5FF401CFFFFC6100
6FC0001FF3100000
8F50004FC0000000
9F3000AF60000000
8F3002FD00000000
7F400BF400000000
3FB3AF8000000000
0BFFF70000000000
0056200000000000
ENDCHAR
STARTCHAR c
ENCODING 99
SWIDTH 363 0
DWIDTH 10 0
BBX 14 13 -1 -1
BITMAP
00000576000000
0003DFEF900000
003EF81DD00000
00DF80BFC00000
06FD00CF400000
0CF60022000074
1FF100000005D1
4FE00000004E30
3FD0000003E600
1FF200006E7000
0BFC3029F60000
02EFFFFC300000
0017AA50000000
ENDCHAR
STARTCHAR d
ENCODING 100
SWIDTH 483 0
DWIDTH 14 0
BBX 17 21 -1 -1
BITMAP
000000000001660000
000000000007FF1000
00000000000CFF2000
00000000001FFF2000
00000000005FFF0000
00000000009FFC0000
0000000000DFF80000
0000000002FFF30000
0000002006FFD00000
00006DFD29FF700000
000AF82BADFE100000
008F9005FFF8000000
02FE1003FFE1000000
09F70000AF70000290
0EF10000CD00001C40
2FB00004F90000B900
4FA0002EF6000AB000
4FC003DDF500AC1000
1FFA9F97F83CC10000
07FFE602FFFA100000
002300004940000000
ENDCHAR
STARTCHAR e
ENCODING 101
SWIDTH 372 0
DWIDTH 10 0
BBX 14 13 -1 -1
BITMAP
00000156100000
00006EFFD00000
0008F84FF00000
006FA03FB00000
01EF20BF300000
08FB1BF5000024
0DFADD300002D4
1FFFA100002D70
2FF7000002D900
0FF700005E9000
09FE5139F80000
01DFFFFC400000
00169840000000
ENDCHAR
STARTCHAR f
ENCODING 102
SWIDTH 325 0
DWIDTH 9 0
BBX 15 34 -3 -14
BITMAP
0000000376000000
0000003FFC000000
0000001FFC000000
0000000FFB000000
0000001FF7000000
0000003FF3000000
0000006FD0000000
0000009F90000000
000000DF40000000
000001FE00000000
000006FA00000000
00000AF500013430
00001EF48BEFDB70
00007FFFC7300000
0008FF9300000000
001FFE1000000000
000DFB0000000000
0008FF9000000000
000CFCF900000000
001FD0CF60000000
005F902FE1000000
009F5009F6000000
00CF2005FB000000
01FE0003FC000000
05FA0004FB000000
09F70008F8000000
0CF3000DF3000000
1FE0006FC0000000
4FB002EF40000000
7F902DFA00000000
9FD9EFD100000000
8FFFFC1000000000
2EFE800000000000
0020000000000000
ENDCHAR
STARTCHAR g
ENCODING 103
SWIDTH 459 0
DWIDTH 13 0
BBX 16 26 -1 -14
BITMAP
0000024100000000
0001AFFE21850000
000CF84DA9F60000
008F8006FEF10000
02FE0004FFC00000
07F80001CF900004
0BF40000AF50009A
0EF20000EF2008D1
0FF20006FD009D20
0DF5004FFA1BD200
09FE8AFBFBEB1000
03EFFD4BFF800000
0025407FF3000000
000009FFC0000000
0001BFCF80000000
002CF5AF50000000
01DF50EF10000000
0BF703FD00000000
3FD007FA00000000
5FA00AF600000000
6F900EF200000000
4F904FD000000000
1FC0AF8000000000
0AFDFF2000000000
02EFF90000000000
0029810000000000
ENDCHAR
STARTCHAR h
ENCODING 104
SWIDTH 465 0
DWIDTH 13 0
BBX 16 21 -1 -1
BITMAP
0000003000000000
00006FF600000000
00007FF500000000
00008FF100000000
0000BFC000000000
0000EF8000000000
0003FF3000000000
0006FE0000000000
000AF90000000000
000DF418DD400000
002FE2DFFFC00000
005FCCA3AFD00000
009FF8008FB00000
00CFB000BF800002
01FF1001FF30005C
05FC0005FC0004E3
08F9000AF6004E40
0CF6000DF207E400
1FF3000FFBDE3000
3FE0000BFFA10000
0660000174000000
ENDCHAR
STARTCHAR i
ENCODING 105
SWIDTH 274 0
DWIDTH 8 0
BBX 10 19 0 -1
BITMAP
00009C0000
0006FF1000
0005F90000
0000200000
0000000000
0000000000
0000000000
006B700000
03FF500000
08FE100000
0CFA000000
1FF5000029
3FF10001D7
5FB0001BB0
6F7001BC10
6F602CD200
4FC7ED2000
09FFB10000
0034000000
ENDCHAR
STARTCHAR j
ENCODING 106
SWIDTH 267 0
DWIDTH 8 0
BBX 16 32 -6 -13
BITMAP
0000000000031000
00000000008F7000
0000000002FF5000
0000000002E90000
0000000000000000
0000000000000000
0000000000000000
0000000000000000
000000005A400000
00000000EF800000
00000003FF400000
00000007FE000000
0000000BF900003A
0000001FF50002E6
0000004FF1002E80
0000008FC004E800
000000BF806F8000
000000EF69F60000
000002FFED400000
000005FF91000000
00004EFB00000000
0005FFF700000000
005FCFF400000000
02EE4FE000000000
0CF46FB000000000
5FB0AF7000000000
BF40EF2000000000
DF13FD0000000000
BE08F80000000000
6F5EF20000000000
0BFF900000000000
0155000000000000
ENDCHAR
STARTCHAR k
ENCODING 107
SWIDTH 440 0
DWIDTH 12 0
BBX 16 21 -1 -1
BITMAP
0000156100000000
0000AFF400000000
0000AFF100000000
0000BFD000000000
0000DF9000000000
0001FF4000000000
0004FE0000000000
0007FA0000000000
000BF40000000000
000EE02AFE300000
003F94EFFF900000
006F8E81AF700000
00AFE600CD100000
00EF7129D3000031
02FA4FFF400003E1
06F46FCFC0001D60
0AF1022FB000BB00
0ED0006F700AD100
3FA000AF84BE2000
7F70008FFFD20000
3710001AC7100000
ENDCHAR
STARTCHAR l
ENCODING 108
SWIDTH 218 0
DWIDTH 6 0
BBX 8 21 -1 -1
BITMAP
00000130
00008FF4
00009FF3
0000AFE0
0000DFB0
0001FF70
0005FF30
0008FE00
000CFA00
001FF600
004FF200
007FD000
00BF9000
00EF6000
03FF2000
07FD0000
0AF90000
0EF50000
2FF10000
5FD00000
06400000
ENDCHAR
STARTCHAR m
ENCODING 109
SWIDTH 717 0
DWIDTH 20 0
BBX 24 12 -1 -1
BITMAP
000030018B60007B70000000
002EF53DFFE02DFFF3000000
003FF6EBAFF4EDBFF6000000
007FFE702FFDA11FF6000000
00AFF9003FFC003FF3000093
00EFE1006FF3007FF10006C0
03FF8000AFA000BFC0003E30
06FF2000DF4000EF8001D800
0AFC0003FD0002FF401CB000
0EF80008FA0003FF65DC1000
1FF4000CF60001FFFFA10000
073000043000004984000000
ENDCHAR
STARTCHAR n
ENCODING 110
SWIDTH 461 0
DWIDTH 13 0
BBX 16 12 -1 -1
BITMAP
00057218DB100000
003FF4DFFF800000
006FEDB4DFB00000
00AFFB00BFA00000
00DFD100DF700009
02FF3001FF300089
05FC0005FE0005E1
09F90009FA003E50
0DF5000DF603E800
2FF2000FF76E9000
6FC0000CFFF80000
4500000289300000
ENDCHAR
STARTCHAR o
ENCODING 111
SWIDTH 393 0
DWIDTH 11 0
BBX 15 13 -1 -1
BITMAP
0000010000000000
0004CFE800000000
002FFA7F90000000
00CF900BF20005A0
05FF6008F6019D20
0BFFA008F66EA100
0EFBF95BFFE60000
2FC1CFFFF7100000
2FB0048FC0000000
1FC000CF50000000
0CF52AFB00000000
04FFFFB100000000
0037840000000000
ENDCHAR
STARTCHAR p
ENCODING 112
SWIDTH 451 0
DWIDTH 13 0
BBX 18 23 -3 -12
BITMAP
000029A106CB100000
00005FF5BFFF900000
00004FFEC47FC00000
00007FFB001FD00000
0000AFD1003FB00015
0000EF30008F8000C5
0003FC0001EF2009A0
0006F90009FA008D10
000AFEF96FE209E200
000DFFFFFF95DE3000
002FDDFFFFFFB20000
006FA3BB4464000000
00AF60000000000000
00DF30000000000000
02FF00000000000000
06FC00000000000000
0AF900000000000000
0EF600000000000000
2FF300000000000000
6FF100000000000000
AFD000000000000000
DFA000000000000000
4B4000000000000000
ENDCHAR
STARTCHAR q
ENCODING 113
SWIDTH 462 0
DWIDTH 13 0
BBX 15 24 -1 -13
BITMAP
00003ADB22980000
0006FC6CC8FA0000
005FD105FDF60000
01EF4003FFF10000
07FE00008FC00000
0DF900009F900000
1FF60000EF500010
2FF40005FF1002D0
1FF4000CFC001C50
0DF8009EF800B900
06FFCDCAF40AB000
005BC81DF1AD1000
0000002FCAE20000
0000006FFE300000
000000AFE2000000
000000EF30000000
000005FD00000000
00000DFB00000000
00005FF900000000
00009FF800000000
0000AFF800000000
00007FF800000000
00001DF800000000
0000019400000000
ENDCHAR
STARTCHAR r
ENCODING 114
SWIDTH 406 0
DWIDTH 11 0
BBX 16 14 -2 -1
BITMAP
00002CC100000000
0000CFF500000000
0004FFF400000000
0006FFF673000000
0001FFFFFE100000
0008F734EF500000
001EC001EF400055
008F3007FC0002E3
01E9001EF3001C80
08E1009F8000AC00
1E6001FF100AD100
8C0003FE12BE2000
E30001EFFFD20000
3000003CD8100000
ENDCHAR
STARTCHAR s
ENCODING 115
SWIDTH 351 0
DWIDTH 10 0
BBX 8 14 0 -1
BITMAP
00002500
0006FF70
005FFE20
00AFF800
008FFA00
02E7FE00
0B90BF60
6C106FD0
52001EF5
004009FA
0CF106F9
3FF809E1
0CFFDE30
01AEA200
ENDCHAR
STARTCHAR t
ENCODING 116
SWIDTH 301 0
DWIDTH 8 0
BBX 14 21 -2 -1
BITMAP
00000015300000
000000AFB00000
000001FFB00000
000006FF900000
13223BFFDA9630
CFFFFFFFFFFFFA
26899FFE001353
00006FF9000000
0000AFF4000000
0000DFE0000000
0001FF90000000
0004FF30000000
0007FD00000010
0009F6000004A0
000CE100002D30
000E900001C800
001F60001BB000
002F8001BD1000
000EE45DD20000
0007FFFC200000
00005970000000
ENDCHAR
STARTCHAR u
ENCODING 117
SWIDTH 468 0
DWIDTH 13 0
BBX 16 12 0 -1
BITMAP
0047200078000000
05FE0005FF000000
0DF9000BFD000000
3FF3001FFA000000
7FD0005FF7000085
AF90008FF20004D0
DF50009FA0002E40
EF30009F5001D700
EF4003EF701CA000
BFC67ECFD7DB1000
3EFFFB1BFF900000
0156300152000000
ENDCHAR
STARTCHAR v
ENCODING 118
SWIDTH 427 0
DWIDTH 12 0
BBX 15 12 0 -1
BITMAP
05A300008F500000
3FF30007FF600000
7FE0000EFE100000
9FB0004FF8000790
AF90005FE125BA00
BF70008FFFFC5000
AF7002FB33100000
8F900CE100000000
6FC09F4000000000
2FFBF70000000000
0AFF800000000000
0186000000000000
ENDCHAR
STARTCHAR w
ENCODING 119
SWIDTH 646 0
DWIDTH 18 0
BBX 21 13 0 -1
BITMAP
0000000021000000000000
029B0006FC0003B7000000
0AFC001EFA002EF9000000
0EF7004FF6007FF6000000
3FF3006FE1008FF2000690
6FE0007F90007FE214BB10
8FB0007F3000AFFFFD6000
AF70008C0000EF65300000
BF5000DC0005FA00000000
AF4008DF100DF300000000
7F818D2EA19F7000000000
2EFFD207FFF90000000000
0397100036400000000000
ENDCHAR
STARTCHAR x
ENCODING 120
SWIDTH 399 0
DWIDTH 11 0
BBX 15 13 -2 -1
BITMAP
0002500000200000
001EF60007FD2000
0008FC006FF90000
0003FF24FF900000
0000CF8EFA000000
00007FFFA0000000
00003FFB00000000
0000BFF300000520
0009FFF800006C00
007FD4FD0019E200
05FD20CFA8DE2000
3FE2005FFFC20000
1930000585000000
ENDCHAR
STARTCHAR y
ENCODING 121
SWIDTH 406 0
DWIDTH 11 0
BBX 12 23 -1 -12
BITMAP
007A40004A90
00EFA0008FF1
01FF70008FE0
04FF2000AFA0
09FC0001EF50
0DF70007FE00
2FF2001EFA00
5FE0009FF600
6FD006FFF200
4FF67FCFE000
0DFFFD5FB000
018B817F7000
000000BF4000
000001FF1000
000004FC0000
000008F90000
00000CF60000
00001FF30000
00005FE00000
00009FC00000
0000DF900000
0001FF600000
00006B200000
ENDCHAR
STARTCHAR z
ENCODING 122
SWIDTH 448 0
DWIDTH 13 0
BBX 16 25 -1 -13
BITMAP
0000000011100000
00005BDFFFFA0000
0001FFFDBDF90000
0001C7200BF30000
000000003FB00000
00000000CF300000
00000007F9000011
0000004FD10001C3
000004EF76101B70
00005FFFEF82C900
00009FD40EDE8000
000029106FE50000
0000007DFF800000
00004DF8AF400000
0006FD31EE000000
006FC106FA000000
03FD100CF5000000
0DF3005FE0000000
6F9000CF80000000
BF4005FE10000000
DF201DF700000000
DF41BFD000000000
AFFEFE2000000000
2DFFC20000000000
0022000000000000
ENDCHAR
STARTCHAR braceleft
ENCODING 123
SWIDTH 243 0
DWIDTH 7 0
BBX 11 28 -1 -4
BITMAP
000000001410
0000002AFF10
000003EFFA00
00000DFF9300
00004FE30000
00006F900000
00007F600000
00006F700000
00005F800000
00005F800000
00009F500000
0001EE100000
007CF6000000
02FE40000000
019F60000000
000EC0000000
000DC0000000
002FA0000000
009F50000000
03FC00000000
0BF300000000
3FA000000000
7F9000000000
8FE100000000
6FFD50000000
0CFF80000000
01BF40000000
000300000000
ENDCHAR
STARTCHAR bar
ENCODING 124
SWIDTH 253 0
DWIDTH 7 0
BBX 7 22 0 -1
BITMAP
00000480
00005FD0
00009F80
0000DF40
0001FE00
0005FB00
0008F600
000CF200
001FD000
004FA000
008F6000
00BF2000
00FE0000
04FB0000
07F80000
0BF60000
0EF30000
3FF00000
6FD00000
AFA00000
DF800000
65000000
ENDCHAR
STARTCHAR braceright
ENCODING 125
SWIDTH 243 0
DWIDTH 7 0
BBX 11 28 -3 -4
BITMAP
000000210000
000000BE5000
000000EFF400
000001AFFD00
00000008FF10
00000002FF00
00000003FB00
0000000AF400
0000004FB000
000000BF3000
000002FA0000
000004F60000
000004F70000
000000DD3000
0000009FB000
00000CFA4000
00007F800000
0000CF100000
0000FD000000
0000FC000000
0000ED000000
0000DF000000
0001FE000000
0008FC000000
07BFF6000000
2FFFA0000000
8FE700000000
441000000000
ENDCHAR
STARTCHAR asciitilde
ENCODING 126
SWIDTH 329 0
DWIDTH 9 0
BBX 11 4 -1 8
BITMAP
003541000240
5EFFFFB88EB0
BFD9AEFFFF40
360000366100
ENDCHAR
STARTCHAR uni00A0
ENCODING 160
SWIDTH 280 0
DWIDTH 8 0
BBX 1 1 0 0
BITMAP
00
ENDCHAR
STARTCHAR exclamdown
ENCODING 161
SWIDTH 249 0
DWIDTH 7 0
BBX 9 22 -1 -1
BITMAP
0000016820
00000CFF70
00002FFB10
0000011000
0000003000
00002CE000
00008FA000
0000CF7000
0001FF4000
0005FF0000
0009FC0000
000DF80000
002FF50000
006FF20000
00AFD00000
00EFA00000
03FF700000
08FF300000
0CFE000000
1FFB000000
5FF9000000
4A71000000
ENDCHAR
STARTCHAR cent
ENCODING 162
SWIDTH 322 0
DWIDTH 9 0
BBX 11 22 -1 -1
BITMAP
000000002000
00000008E000
0000000CA000
0000016FB200
00003DE8BD00
0003EE204F30
001DF405FF40
008F900EFF30
01FF100FFD00
07F90008A200
0CF400000000
0FE000000000
1FD000000000
1FB000000000
1FC000001000
0CE000085000
08F8019A0000
01DFEFB10000
001DE4000000
000EA0000000
004F40000000
001300000000
ENDCHAR
STARTCHAR sterling
ENCODING 163
SWIDTH 318 0
DWIDTH 9 0
BBX 12 18 -2 1
BITMAP
0000002AEFB1
000001ED64D9
00000AE200BD
00002F9001EC
00006F518DF6
0000AF10DF80
0000DD000000
0002FA000000
0036F7011000
02FFFFFF3000
003EE9960000
003FA0000000
007F50000000
00CE00000000
04F700000000
1DD69BCCA100
5FFFFFEEE100
075310002000
ENDCHAR
STARTCHAR currency
ENCODING 164
SWIDTH 347 0
DWIDTH 10 0
BBX 11 10 -1 5
BITMAP
004C10000490
004F94976FB0
0009FFDFFA00
0004F508E000
000BA008C000
000F600D8000
003FA4BF3000
04EEFFDFB000
2FC11208F500
061000009200
ENDCHAR
STARTCHAR yen
ENCODING 165
SWIDTH 326 0
DWIDTH 9 0
BBX 11 18 0 1
BITMAP
002500000150
02FB00003EC0
01FC0000AF40
00DE0002FA00
00AF100BE200
007F406F6000
003F74FA0000
000DDEC10000
0007FD100000
0008F6000000
08BEFED30000
3A9FD9910000
147FC7300000
CFFFFF600000
10BF11000000
01FC00000000
05F800000000
013000000000
ENDCHAR
STARTCHAR brokenbar
ENCODING 166
SWIDTH 253 0
DWIDTH 7 0
BBX 7 22 0 -1
BITMAP
00000480
00005FD0
00009F90
0000DF40
0001FF10
0005FB00
0009F700
000CF300
001FE000
00185000
00000000
00000000
00DD0000
03FB0000
07F80000
0BF60000
0EF30000
3FF00000
6FD00000
AFA00000
DF800000
65000000
ENDCHAR
STARTCHAR section
ENCODING 167
SWIDTH 297 0
DWIDTH 8 0
BBX 11 22 -1 -1
BITMAP
0000017A9300
00006E915F40
0005FA002FA0
000DF2005FA0
000FE001DE30
000AF4002100
0002DD100000
00002CD20000
0006CEED1000
00BF814F8000
08F8001FB000
0CF3001FC000
0AF4009F5000
03FC5BE60000
004EF9200000
0002DD200000
00002ED10000
4DC108F60000
BF2008F70000
CF001DE20000
4F74BE500000
028982000000
ENDCHAR
STARTCHAR dieresis
ENCODING 168
SWIDTH 567 0
DWIDTH 16 0
BBX 8 3 6 16
BITMAP
15400340
CFE08FF4
CB307C70
ENDCHAR
STARTCHAR copyright
ENCODING 169
SWIDTH 456 0
DWIDTH 13 0
BBX 14 15 0 6
BITMAP
00000035530000
00004CFCBED400
0007FA20009F40
007F7018B50BE0
03FA02DE9F13F5
0AE10BE25F40D9
1FA05F505910CB
5F60CD000000DB
6F40E8000001F9
6F40D8002706F4
3F609D35B11DC0
0DB01CFB109F30
04F8000009F500
006EC768DD4000
00027ABA500000
ENDCHAR
STARTCHAR ordfeminine
ENCODING 170
SWIDTH 373 0
DWIDTH 10 0
BBX 14 15 -2 -1
BITMAP
00000037300000
00001AFFE10000
0000BE4CE30000
0009F504FB0000
004FB002F90000
00BF4005F60000
02FE0009F20002
05FC002EE00096
06FC03DEC009A0
04FFDF98E5BB00
00BFD603EE8000
00010000000000
05789999871000
4FFFFFFFFE1000
6A865444420000
ENDCHAR
STARTCHAR guillemotleft
ENCODING 171
SWIDTH 346 0
DWIDTH 10 0
BBX 11 12 -1 -1
BITMAP
00005C204C30
0005F704F800
004EB03EB000
03ED12EE1000
2EF31DF40000
DF70CF800000
BF80AF800000
2EE02EE10000
07F607F60000
00DC00DC0000
004F405F3000
000430052000
ENDCHAR
STARTCHAR logicalnot
ENCODING 172
SWIDTH 512 0
DWIDTH 14 0
BBX 15 8 -1 4
BITMAP
0001223333211000
06EFFFFFFFFFFF90
1FFEDBBAAAABCFB0
1310000000005F70
000000000000AF40
000000000000EE00
000000000005F800
0000000000044000
ENDCHAR
STARTCHAR sfthyphen
ENCODING 173
SWIDTH 353 0
DWIDTH 10 0
BBX 11 3 -1 7
BITMAP
069ABBCCBA40
3FFFFFFFFF40
485432111100
ENDCHAR
STARTCHAR registered
ENCODING 174
SWIDTH 456 0
DWIDTH 13 0
BBX 14 15 0 6
BITMAP
00000035530000
00004CFCBED400
0007FA20009F40
007F729CC60BE0
03FA0EF45F23F5
0AE105F02F30D9
1FA007B09C00CB
5F602DDAE200DB
6F402FCF2001F9
6F404F1B8006F4
3F609D06D21DC0
0DB1B501E99F30
04F8000019F500
006EC768DD4000
00027ABA500000
ENDCHAR
STARTCHAR macron
ENCODING 175
SWIDTH 567 0
DWIDTH 16 0
BBX 7 3 6 16
BITMAP
02444420
7FFFFFD0
8A988850
ENDCHAR
STARTCHAR degree
ENCODING 176
SWIDTH 144 0
DWIDTH 4 0
BBX 5 4 1 15
BITMAP
04B910
2E5D60
4F7E30
069400
ENDCHAR
STARTCHAR twosuperior
ENCODING 178
SWIDTH 268 0
DWIDTH 8 0
BBX 9 14 0 7
BITMAP
00005AB700
000AF7CF40
007F706F70
00CF308F60
004920DF20
000005F900
00001DD100
0001CE3000
001CF40000
02DE400000
1DE3000000
8FDDFEA000
5FFDDFE000
0410015000
ENDCHAR
STARTCHAR threesuperior
ENCODING 179
SWIDTH 262 0
DWIDTH 7 0
BBX 9 14 0 7
BITMAP
00028BA400
004EE9CF30
00DF305F70
00FE107F50
007A41EE10
00001BF500
0006DF6000
000CCEE200
000105F600
000005F600
3DA00BF200
5FC27F9000
0CFFFA0000
0056400000
ENDCHAR
STARTCHAR acute
ENCODING 180
SWIDTH 567 0
DWIDTH 16 0
BBX 5 4 7 15
BITMAP
001AC0
04DFD0
8FF910
672000
ENDCHAR
STARTCHAR mu
ENCODING 181
SWIDTH 453 0
DWIDTH 13 0
BBX 17 17 -4 -6
BITMAP
000000000001000000
00000AF3004F900000
00006FC000CF800000
0000CF7002FF600000
0002FF2006FF300000
0006FC0009FD000010
0009F8000AF6000490
000DF6000BF2000D20
002FF7004FF300A800
006FFE99FAFB5BC000
009FDFFE60AFFC2000
00DF40200004300000
02FF10000000000000
06FC00000000000000
0BF700000000000000
2FD100000000000000
361000000000000000
ENDCHAR
STARTCHAR paragraph
ENCODING 182
SWIDTH 411 0
DWIDTH 12 0
BBX 14 22 0 -1
BITMAP
00000000650340
00001468FA6FB5
0008EFFFFFFFFA
00BFFFFFE9DF60
08FFFFFFB0DC00
0EFFFFFF71F900
1FFFFFFF45F500
2FFFFFFF08F200
0DFFFFFC0BD000
05FFFFF80EA000
003BFFF42F7000
00001BF15F4000
00000DC08F1000
00002F90BC0000
00006F60E90000
00009F23F60000
0000DE06F20000
0002FA0AE00000
0006F60DA00000
000BF34F600000
002FE0AD100000
00462051000000
ENDCHAR
STARTCHAR periodcentered
ENCODING 183
SWIDTH 168 0
DWIDTH 5 0
BBX 4 3 0 8
BITMAP
06B9
8FFD
7EB2
ENDCHAR
STARTCHAR cedilla
ENCODING 184
SWIDTH 567 0
DWIDTH 16 0
BBX 5 7 7 -4
BITMAP
049100
0EC000
5FB720
38BFE0
000EE0
05CE40
9A6100
ENDCHAR
STARTCHAR onesuperior
ENCODING 185
SWIDTH 150 0
DWIDTH 4 0
BBX 6 14 0 7
BITMAP
000381
004EF4
007FF1
001FC0
003F80
006F40
00AF10
00DC00
02F800
06F400
0AF100
0EE000
1FF000
033000
ENDCHAR
STARTCHAR ordmasculine
ENCODING 186
SWIDTH 319 0
DWIDTH 9 0
BBX 13 15 -2 -1
BITMAP
00000010000000
00019FFB100000
0009FB4DB00000
003FE007F30570
00AFE005F57C10
01FEF816FEB100
03F88FFFF70000
03F7047FC00000
02F8008F600000
00DE57FB000000
004EFF91000000
00013100000000
06899998300000
6FFFFFFF600000
89754433000000
ENDCHAR
STARTCHAR guillemotright
ENCODING 187
SWIDTH 346 0
DWIDTH 10 0
BBX 11 12 -2 -1
BITMAP
00B600C50000
009E109E1000
002F903F9000
000BF30BF400
0004FC04FC00
0000EF50DF60
0005FD14FD20
002EE22EE200
01DE30CE3000
0AF409F40000
6F406F500000
520052000000
ENDCHAR
STARTCHAR onequarter
ENCODING 188
SWIDTH 579 0
DWIDTH 16 0
BBX 17 22 -1 -1
BITMAP
000028100000002730
0003EF50000005FC00
0006FF1000002EE200
0000ED000000BF5000
0002F9000007F90000
0005F500002FD10000
0008F10000CF300000
000CD00008F7000000
001F90003FB0005700
005F6001DE200CFE00
009F3009F5009FFB00
00DF104FA006F9F700
00FF11DE105FB4F400
00330AF503EC18F100
00005FB03EE33DD100
0001EE206FFFFFF900
000AF70019858FC500
006FC00000009F4000
02EF40000000DF2000
0BFA00000001FF1000
7FE200000003FF0000
551000000000630000
ENDCHAR
STARTCHAR onehalf
ENCODING 189
SWIDTH 603 0
DWIDTH 17 0
BBX 18 22 -1 -1
BITMAP
000018200000002750
0002DF70000004ED10
0004FF4000001DF400
0000CE0000009F8000
0000FB000005FB0000
0003F700001EE20000
0006F40000AF500000
000AE00006F9000000
000DB0002ED1059930
002F7000BF31BE8EE0
007F4007F80AF30BF3
00BF302FC01FD00DF2
00DF30CF3009902FD0
002307F80000009F60
00003FD0000003FA00
0000CF4000002DD100
0008F9000003DE2000
004FE100004ED30000
01DF600003ED200000
09FC00000CFBCDB500
4FF300000BFFFFFA00
462000000261004400
ENDCHAR
STARTCHAR threequarters
ENCODING 190
SWIDTH 669 0
DWIDTH 19 0
BBX 18 22 0 -1
BITMAP
00028BA40000000058
004EE9CF3000000CF6
00DF305F7000008F90
00FE107F500004FD10
007A41EE10001DF300
00001BF500009F6000
0006DF600004FB0000
000CCEE2001EE10000
000105F600AF400264
000005F605F9005FF8
3DA00BF22ED102EFF4
5FC27F90BF301DE9F0
0CFFFA06F800BF4BC0
0056402ED10AF61F80
000000BF409F926F70
000007F900DFFFFFF2
00002FE1005964DFA0
0000CF50000001FD00
0008FB00000004FA00
003FF300000008F800
00DF800000000AF800
026300000000036100
ENDCHAR
STARTCHAR questiondown
ENCODING 191
SWIDTH 413 0
DWIDTH 12 0
BBX 14 22 -2 -1
BITMAP
000000000018A5
0000000000CFFE
0000000000BFE5
00000000000100
00000000001750
0000000001DF50
0000000006FF10
000000000AFC00
000000000EF800
000000027FF400
000003BFFFB000
00008FFB620000
001BFC30000000
00AFC100000000
05FF2000000000
0DF90000001000
2FF300000BF700
5FF0000009FE00
5FF100001DFC00
2FFA1003CFE300
05FFFDEFFB2000
0028BCB8300000
ENDCHAR
STARTCHAR Agrave
ENCODING 192
SWIDTH 552 0
DWIDTH 15 0
BBX 18 34 -3 -7
BITMAP
000000000000010000
0000000000005FB200
0000000000004DFE40
000000000000007EF2
000000000000000171
000000000000000000
000000000000058710
000000000003DFFFB0
00000000004EE62FE0
0000000002EE300FD0
000000000CF4002FB0
000000007FB0005F90
00000001EF30008F60
00000008FC0000CF40
0000000EF50000FF20
0000005FE00003FE00
000000BF900006FC00
000002FF40000AF900
000007FE00000DF700
00000CF900001FF400
00002FF856546FF200
0004BFFFFFFFFFFD80
18EFFFECBABDFFFD10
2867FF800000BFC100
0009FF400000EF8000
000EFE000001FF6000
005FFB000003FF4000
00AFF7000006FF3000
01FFF3000007FF3000
07FFC0000008FF4000
1EFF50000008FF6000
ADA500000006FFA000
000000000004FFC100
000000000000620000
ENDCHAR
STARTCHAR Aacute
ENCODING 193
SWIDTH 552 0
DWIDTH 15 0
BBX 18 34 -3 -7
BITMAP
000000000000000010
0000000000000008E2
00000000000002CFF2
0000000000005EFB30
000000000000383000
000000000000000000
000000000000058710
000000000003DFFFB0
00000000004EE62FE0
0000000002EE300FD0
000000000CF4002FB0
000000007FB0005F90
00000001EF30008F60
00000008FC0000CF40
0000000EF50000FF20
0000005FE00003FE00
000000BF900006FC00
000002FF40000AF900
000007FE00000DF700
00000CF900001FF400
00002FF856546FF200
0004BFFFFFFFFFFD80
18EFFFECBABDFFFD10
2867FF800000BFC100
0009FF400000EF8000
000EFE000001FF6000
005FFB000003FF4000
00AFF7000006FF3000
01FFF3000007FF3000
07FFC0000008FF4000
1EFF50000008FF6000
ADA500000006FFA000
000000000004FFC100
000000000000620000
ENDCHAR
STARTCHAR Acircumflex
ENCODING 194
SWIDTH 552 0
DWIDTH 15 0
BBX 19 33 -3 -7
BITMAP
00000000000000032000
00000000000002CFF200
0000000000004EC8FA00
000000000006EA10BF50
00000000000000000000
00000000000005871000
000000000003DFFFB000
00000000004EE62FE000
0000000002EE300FD000
000000000CF4002FB000
000000007FB0005F9000
00000001EF30008F6000
00000008FC0000CF4000
0000000EF50000FF2000
0000005FE00003FE0000
000000BF900006FC0000
000002FF40000AF90000
000007FE00000DF70000
00000CF900001FF40000
00002FF856546FF20000
0004BFFFFFFFFFFD8000
18EFFFECBABDFFFD1000
2867FF800000BFC10000
0009FF400000EF800000
000EFE000001FF600000
005FFB000003FF400000
00AFF7000006FF300000
01FFF3000007FF300000
07FFC0000008FF400000
1EFF50000008FF600000
ADA500000006FFA00000
000000000004FFC10000
00000000000062000000
ENDCHAR
STARTCHAR Atilde
ENCODING 195
SWIDTH 552 0
DWIDTH 15 0
BBX 20 32 -3 -7
BITMAP
00000000000046620034
00000000000BFFFFCBF7
00000000000B8338BC80
00000000000000000000
00000000000005871000
000000000003DFFFB000
00000000004EE62FE000
0000000002EE300FD000
000000000CF4002FB000
000000007FB0005F9000
00000001EF30008F6000
00000008FC0000CF4000
0000000EF50000FF2000
0000005FE00003FE0000
000000BF900006FC0000
000002FF40000AF90000
000007FE00000DF70000
00000CF900001FF40000
00002FF856546FF20000
0004BFFFFFFFFFFD8000
18EFFFECBABDFFFD1000
2867FF800000BFC10000
0009FF400000EF800000
000EFE000001FF600000
005FFB000003FF400000
00AFF7000006FF300000
01FFF3000007FF300000
07FFC0000008FF400000
1EFF50000008FF600000
ADA500000006FFA00000
000000000004FFC10000
00000000000062000000
ENDCHAR
STARTCHAR Adieresis
ENCODING 196
SWIDTH 552 0
DWIDTH 15 0
BBX 20 32 -3 -7
BITMAP
00000000000005400340
000000000000BFF06FF5
000000000000BB406C80
00000000000000000000
00000000000005871000
000000000003DFFFB000
00000000004EE62FE000
0000000002EE300FD000
000000000CF4002FB000
000000007FB0005F9000
00000001EF30008F6000
00000008FC0000CF4000
0000000EF50000FF2000
0000005FE00003FE0000
000000BF900006FC0000
000002FF40000AF90000
000007FE00000DF70000
00000CF900001FF40000
00002FF856546FF20000
0004BFFFFFFFFFFD8000
18EFFFECBABDFFFD1000
2867FF800000BFC10000
0009FF400000EF800000
000EFE000001FF600000
005FFB000003FF400000
00AFF7000006FF300000
01FFF3000007FF300000
07FFC0000008FF400000
1EFF50000008FF600000
ADA500000006FFA00000
000000000004FFC10000
00000000000062000000
ENDCHAR
STARTCHAR Aring
ENCODING 197
SWIDTH 552 0
DWIDTH 15 0
BBX 17 31 -3 -7
BITMAP
000000000000017930
00000000000009BAC0
0000000000000C89A0
00000000000009FE20
000000000003DFFFB0
00000000003EE62FE0
0000000002EE300FD0
000000000CF4002FB0
000000007FB0005F90
00000001EF30008F60
00000008FC0000CF40
0000000EF50000FF20
0000005FE00003FE00
000000BF900006FC00
000002FF40000AF900
000007FE00000DF700
00000CF900001FF400
00002FF856546FF200
0004BFFFFFFFFFFD80
18EFFFECBABDFFFD10
2867FF800000BFC100
0009FF400000EF8000
000EFE000001FF6000
005FFB000003FF4000
00AFF7000006FF3000
01FFF3000007FF3000
07FFC0000008FF4000
1EFF50000008FF6000
ADA500000006FFA000
000000000004FFC100
000000000000620000
ENDCHAR
STARTCHAR AE
ENCODING 198
SWIDTH 869 0
DWIDTH 24 0
BBX 28 28 -3 -7
BITMAP
0000000000000587100004798400
000000000003DFFFB007EFEBCFA0
00000000004EE62FE2DFD5000BF6
0000000002EE300FFEFC100008FA
000000000CF4002FFFE2000009FB
000000007FB0005FFF8000000EF8
00000001EF30008FFF2000008FF2
00000008FC0000CFFE000008FFB0
0000000EF50000FFFD000018DC10
0000005FE00003FFFE0000000000
000000BF900006FFFF3000000000
000002FF40000AFCEFC000000000
000007FE00000DF74DFB88300000
00000CF900001FF45CFFFF800000
00002FF856546FFDFC5388100000
0004BFFFFFFFFFFFA10000000000
18EFFFECBABDFFFC000000000000
2867FF800000BFF3000000000000
0009FF400000EFD0000000003300
000EFE000001FFC000000000B400
005FFB000003FFD000000006E000
00AFF7000006FFF20000002E7000
01FFF3000007FFFA000002DD0000
07FFC0000008FFFFA2016EE20000
1EFF50000008FFFFFFFFFD300000
ADA500000006FFD9DFFD81000000
000000000004FFC2001000000000
0000000000006200000000000000
ENDCHAR
STARTCHAR Ccedilla
ENCODING 199
SWIDTH 548 0
DWIDTH 15 0
BBX 16 32 0 -11
BITMAP
00000000058A8200
00000006EFDCFF40
000000AFE6006FE1
00000BFF40001FF4
00008FF600002FF6
0004FFB000004FF7
000CFF2000009FF5
005FF9000001EFF2
00CFF200001DFFC0
04FFB0000009FE20
09FF600000003100
0EFF100000000000
3FFC000000000000
7FF9000000000000
AFF6000000000000
CFF3000000000000
EFF2000000000000
FFF1000000000000
FFE0000000000000
EFF0000000001000
BFF10000000A7000
7FF50000006E1000
2FFB000005F60000
08FF9103AF900000
00BFFFFFF9000000
0007EFFC40000000
0000CE1000000000
0002FB6100000000
0003ACFE10000000
000000DF20000000
00003AF700000000
0007C92000000000
ENDCHAR
STARTCHAR Egrave
ENCODING 200
SWIDTH 523 0
DWIDTH 15 0
BBX 16 33 -1 -6
BITMAP
0000000000100000
0000000003FC3000
0000000003DFF500
000000000006DF40
0000000000000620
0000000000000000
0000000003789610
00000005CFFCBFD2
000001AFF81006FA
00001BFE400003FF
00009FF6000004FF
0003FFC0000009FC
0008FF6000003FF7
000CFF300005EFE1
000DFF200006CD40
000CFF3000000000
0007FF8000000000
0000CFE200000000
00001BFD78500000
000029FFFFD00000
0008FE7379300000
00BFD20000000000
09FE200000000000
3FF8000000000000
8FF3000000000600
BFF1000000007900
CFF300000002E400
BFF70000000CC000
6FFE100000BF3000
0DFFC4004DF60000
02DFFFFFFF600000
0017DFFEA2000000
0000001000000000
ENDCHAR
STARTCHAR Eacute
ENCODING 201
SWIDTH 523 0
DWIDTH 15 0
BBX 16 32 -1 -6
BITMAP
0000000000001BC0
000000000004EFD0
00000000008FF910
0000000000671000
0000000000000000
0000000003789610
00000005CFFCBFD2
000001AFF81006FA
00001BFE400003FF
00009FF6000004FF
0003FFC0000009FC
0008FF6000003FF7
000CFF300005EFE1
000DFF200006CD40
000CFF3000000000
0007FF8000000000
0000CFE200000000
00001BFD78500000
000029FFFFD00000
0008FE7379300000
00BFD20000000000
09FE200000000000
3FF8000000000000
8FF3000000000600
BFF1000000007900
CFF300000002E400
BFF70000000CC000
6FFE100000BF3000
0DFFC4004DF60000
02DFFFFFFF600000
0017DFFEA2000000
0000001000000000
ENDCHAR
STARTCHAR Ecircumflex
ENCODING 202
SWIDTH 523 0
DWIDTH 15 0
BBX 17 32 -1 -6
BITMAP
000000000000131000
000000000005EFC000
00000000007FABF600
0000000019E702DE20
000000000000000100
000000000378961000
00000005CFFCBFD200
000001AFF81006FA00
00001BFE400003FF00
00009FF6000004FF00
0003FFC0000009FC00
0008FF6000003FF700
000CFF300005EFE100
000DFF200006CD4000
000CFF300000000000
0007FF800000000000
0000CFE20000000000
00001BFD7850000000
000029FFFFD0000000
0008FE737930000000
00BFD2000000000000
09FE20000000000000
3FF800000000000000
8FF300000000060000
BFF100000000790000
CFF300000002E40000
BFF70000000CC00000
6FFE100000BF300000
0DFFC4004DF6000000
02DFFFFFFF60000000
0017DFFEA200000000
000000100000000000
ENDCHAR
STARTCHAR Edieresis
ENCODING 203
SWIDTH 523 0
DWIDTH 15 0
BBX 17 31 -1 -6
BITMAP
000000000045002510
0000000009FF24FF70
0000000009C604C910
000000000000000000
000000000378961000
00000005CFFCBFD200
000001AFF81006FA00
00001BFE400003FF00
00009FF6000004FF00
0003FFC0000009FC00
0008FF6000003FF700
000CFF300005EFE100
000DFF200006CD4000
000CFF300000000000
0007FF800000000000
0000CFE20000000000
00001BFD7850000000
000029FFFFD0000000
0008FE737930000000
00BFD2000000000000
09FE20000000000000
3FF800000000000000
8FF300000000060000
BFF100000000790000
CFF300000002E40000
BFF70000000CC00000
6FFE100000BF300000
0DFFC4004DF6000000
02DFFFFFFF60000000
0017DFFEA200000000
000000100000000000
ENDCHAR
STARTCHAR Igrave
ENCODING 204
SWIDTH 537 0
DWIDTH 15 0
BBX 18 33 -3 -6
BITMAP
000000000000010000
0000000000009F9000
0000000000008FFC20
000000000000029FD0
000000000000000270
000000000000000000
000000000000037600
000000000002BFFF60
00000000003EFB5F90
0000000001DFC16F90
0000000008FF308F90
000000000EFC00AF80
000000004FF700DF60
000000006FF301FF40
000000007FF005FF20
000000006FE009FE00
000000004FD00DFB00
000000001FE01FF700
000000000CF25FF400
0000000004D19FE000
000000000000DFA000
0000001579BCFFEDC7
00006CFFFFDEFF7772
003DFFD9410CFA0000
03EFE500001FF40000
0BFF3000006FD00000
1FFC000000BF700000
0FFD000002FE100000
0AFF40000AF7000000
02EFD2003FC0000000
004EFE86ED20000000
00029EFFA200000000
000000100000000000
ENDCHAR
STARTCHAR Iacute
ENCODING 205
SWIDTH 537 0
DWIDTH 15 0
BBX 18 32 -3 -6
BITMAP
0000000000000002C9
000000000000006EFA
0000000000000AFE70
000000000000076100
000000000000000000
000000000000037600
000000000002BFFF60
00000000003EFB5F90
0000000001DFC16F90
0000000008FF308F90
000000000EFC00AF80
000000004FF700DF60
000000006FF301FF40
000000007FF005FF20
000000006FE009FE00
000000004FD00DFB00
000000001FE01FF700
000000000CF25FF400
0000000004D19FE000
000000000000DFA000
0000001579BCFFEDC7
00006CFFFFDEFF7772
003DFFD9410CFA0000
03EFE500001FF40000
0BFF3000006FD00000
1FFC000000BF700000
0FFD000002FE100000
0AFF40000AF7000000
02EFD2003FC0000000
004EFE86ED20000000
00029EFFA200000000
000000100000000000
ENDCHAR
STARTCHAR Icircumflex
ENCODING 206
SWIDTH 537 0
DWIDTH 15 0
BBX 20 32 -3 -6
BITMAP
00000000000000013100
000000000000003DFD10
00000000000006FBAF70
0000000000008E801CF3
00000000000000000010
00000000000003760000
000000000002BFFF6000
00000000003EFB5F9000
0000000001DFC16F9000
0000000008FF308F9000
000000000EFC00AF8000
000000004FF700DF6000
000000006FF301FF4000
000000007FF005FF2000
000000006FE009FE0000
000000004FD00DFB0000
000000001FE01FF70000
000000000CF25FF40000
0000000004D19FE00000
000000000000DFA00000
0000001579BCFFEDC700
00006CFFFFDEFF777200
003DFFD9410CFA000000
03EFE500001FF4000000
0BFF3000006FD0000000
1FFC000000BF70000000
0FFD000002FE10000000
0AFF40000AF700000000
02EFD2003FC000000000
004EFE86ED2000000000
00029EFFA20000000000
00000010000000000000
ENDCHAR
STARTCHAR Idieresis
ENCODING 207
SWIDTH 537 0
DWIDTH 15 0
BBX 20 31 -3 -6
BITMAP
00000000000005400340
000000000000BFF06FF5
000000000000BB406C80
00000000000000000000
00000000000003760000
000000000002BFFF6000
00000000003EFB5F9000
0000000001DFC16F9000
0000000008FF308F9000
000000000EFC00AF8000
000000004FF700DF6000
000000006FF301FF4000
000000007FF005FF2000
000000006FE009FE0000
000000004FD00DFB0000
000000001FE01FF70000
000000000CF25FF40000
0000000004D19FE00000
000000000000DFA00000
0000001579BCFFEDC700
00006CFFFFDEFF777200
003DFFD9410CFA000000
03EFE500001FF4000000
0BFF3000006FD0000000
1FFC000000BF70000000
0FFD000002FE10000000
0AFF40000AF700000000
02EFD2003FC000000000
004EFE86ED2000000000
00029EFFA20000000000
00000010000000000000
ENDCHAR
STARTCHAR Eth
ENCODING 208
SWIDTH 632 0
DWIDTH 18 0
BBX 18 27 -1 -6
BITMAP
000000157874000000
000019EFFFFFE60000
0000CFFEA89CFFB100
0000ED5000005FFA00
00007104200006FF50
000004CF600000DFC0
000009FF4000007FF3
00000BFF1000004FF6
00000DFD0000002FF9
00001FFA0000002FFA
00003FF70000003FFA
00006FF30000005FFA
1ACDEFFEDC20007FF8
8FFFFFFEEC0000AFF5
5532FF80000000EFF1
0004FF40000003FFB0
0007FE00000008FF50
000BFB0000001EFD00
000FF70000008FF500
004FF2000002EFB000
008FD000000CFE2000
00DF9000009FF50000
04FF400019FF600000
0CFF1004CFE5000000
1CFFDBDFFB20000000
007DFFEA4000000000
000011000000000000
ENDCHAR
STARTCHAR Ntilde
ENCODING 209
SWIDTH 541 0
DWIDTH 15 0
BBX 20 29 -2 -5
BITMAP
00000000026630016000
000000006FFFFDBEC000
000000006B436ACA2000
00000002000000005970
000002CF8000000BFFF7
000006FFA000007FF9DA
00000AFFC00000DFA0BA
00000DFFD00003FF21E8
00001FEFE00008FC07F3
00005FAFF0000CF83FA0
00008F6EF1000FF9ED10
0000CF2CF10AAFFFC200
0001FE0BF2019FE50000
0004FB09F2008FB00000
0008F809F200AF800000
000CF408F300CF600000
001FF107F300EF300000
004FE007F402FF100000
008FB006F505FD000000
00CF8006F708FA000000
01FF6005F80BF8000000
04FF3004FA0EF5000000
07FF1002FC2FF1000000
0AFF0000FE6FD0000000
0DFF0000DFDF90000000
1FFF00009FFF50000000
2FFF00006FFF10000000
1FFF20001FFD00000000
09EB200008C400000000
ENDCHAR
STARTCHAR Ograve
ENCODING 210
SWIDTH 567 0
DWIDTH 16 0
BBX 15 33 0 -6
BITMAP
0000000001000000
000000003FC30000
000000003DFF5000
00000000006DF400
0000000000006200
0000000000000000
00000004BD751000
0000007FFFFFD100
000006FFF92DF700
00003FF76007FC00
0000DFB00004FF10
0007FF200002FF40
001EF9000001FF50
007FF2000000FF60
00CFB0000000FF70
03FF60000000FF70
08FF10000001FF60
0CFC00000002FF50
1FF900000004FF40
4FF600000006FF20
6FF400000009FE00
8FF20000000DFB00
AFF00000001FF600
AFE00000006FF100
BFE0000000BFC000
AFE0000002FF5000
9FE0000009FD0000
7FF100002FF60000
3FF40000BFB00000
0CF90009FD200000
03FF75BFD2000000
004EFFF910000000
0000441000000000
ENDCHAR
STARTCHAR Oacute
ENCODING 211
SWIDTH 567 0
DWIDTH 16 0
BBX 15 33 0 -6
BITMAP
0000000000001000
000000000006E300
0000000001AFF400
000000003EFC4000
0000000028400000
0000000000000000
00000004BD751000
0000007FFFFFD100
000006FFF92DF700
00003FF76007FC00
0000DFB00004FF10
0007FF200002FF40
001EF9000001FF50
007FF2000000FF60
00CFB0000000FF70
03FF60000000FF70
08FF10000001FF60
0CFC00000002FF50
1FF900000004FF40
4FF600000006FF20
6FF400000009FE00
8FF20000000DFB00
AFF00000001FF600
AFE00000006FF100
BFE0000000BFC000
AFE0000002FF5000
9FE0000009FD0000
7FF100002FF60000
3FF40000BFB00000
0CF90009FD200000
03FF75BFD2000000
004EFFF910000000
0000441000000000
ENDCHAR
STARTCHAR Ocircumflex
ENCODING 212
SWIDTH 567 0
DWIDTH 16 0
BBX 15 32 0 -6
BITMAP
0000000000131000
0000000003DFE100
000000006FB9F800
00000008E801CF40
0000000000000100
00000004BD751000
0000007FFFFFD100
000006FFF92DF700
00003FF76007FC00
0000DFB00004FF10
0007FF200002FF40
001EF9000001FF50
007FF2000000FF60
00CFB0000000FF70
03FF60000000FF70
08FF10000001FF60
0CFC00000002FF50
1FF900000004FF40
4FF600000006FF20
6FF400000009FE00
8FF20000000DFB00
AFF00000001FF600
AFE00000006FF100
BFE0000000BFC000
AFE0000002FF5000
9FE0000009FD0000
7FF100002FF60000
3FF40000BFB00000
0CF90009FD200000
03FF75BFD2000000
004EFFF910000000
0000441000000000
ENDCHAR
STARTCHAR Otilde
ENCODING 213
SWIDTH 567 0
DWIDTH 16 0
BBX 15 31 0 -6
BITMAP
0000000266300160
0000006FFFFDBEC0
0000006B436ACA20
0000000000000000
00000004BD751000
0000007FFFFFD100
000006FFF92DF700
00003FF76007FC00
0000DFB00004FF10
0007FF200002FF40
001EF9000001FF50
007FF2000000FF60
00CFB0000000FF70
03FF60000000FF70
08FF10000001FF60
0CFC00000002FF50
1FF900000004FF40
4FF600000006FF20
6FF400000009FE00
8FF20000000DFB00
AFF00000001FF600
AFE00000006FF100
BFE0000000BFC000
AFE0000002FF5000
9FE0000009FD0000
7FF100002FF60000
3FF40000BFB00000
0CF90009FD200000
03FF75BFD2000000
004EFFF910000000
0000441000000000
ENDCHAR
STARTCHAR Odieresis
ENCODING 214
SWIDTH 567 0
DWIDTH 16 0
BBX 15 31 0 -6
BITMAP
0000000045102510
00000007FF53EF90
00000007C702CA20
0000000000000000
00000004BD751000
0000007FFFFFD100
000006FFF92DF700
00003FF76007FC00
0000DFB00004FF10
0007FF200002FF40
001EF9000001FF50
007FF2000000FF60
00CFB0000000FF70
03FF60000000FF70
08FF10000001FF60
0CFC00000002FF50
1FF900000004FF40
4FF600000006FF20
6FF400000009FE00
8FF20000000DFB00
AFF00000001FF600
AFE00000006FF100
BFE0000000BFC000
AFE0000002FF5000
9FE0000009FD0000
7FF100002FF60000
3FF40000BFB00000
0CF90009FD200000
03FF75BFD2000000
004EFFF910000000
0000441000000000
ENDCHAR
STARTCHAR multiply
ENCODING 215
SWIDTH 281 0
DWIDTH 8 0
BBX 10 11 -1 4
BITMAP
0036000041
00CF7008FC
003FB06FD1
000DF5FD20
0008FFE200
0005FE3000
001DFC0000
00BFCF2000
0AF55F8000
7F500DF100
3400027000
ENDCHAR
STARTCHAR Oslash
ENCODING 216
SWIDTH 597 0
DWIDTH 17 0
BBX 18 28 -1 -6
BITMAP
000000000000000023
0000000019D9633DF6
00000002EFFFFFEFC0
0000002EFED48FFF30
000000CFC5202FF900
000008FE20008FF600
00002FF70002FFF900
00009FE1000AFFFB00
0001FF70003FFDFC00
0007FF1000BFAAFC00
000DFB0005FE2AFC00
002FF6000DF80AFC00
006FF2006FD10CFB00
00AFE001EF500EF900
00DFA008FC001FF700
00FF802FF4004FF400
02FF70AFA0007FF100
04FF53FF3000BFC000
05FF4BFA0001FF7000
06FF9FF20006FF2000
05FFFFA0000CFA0000
04FFFF20004FF30000
01FFF90000CFB00000
00DFF20007FE200000
02FFE0004FF5000000
0AFFFA48FF60000000
3FFCBFFFC400000000
8C9203420000000000
ENDCHAR
STARTCHAR Ugrave
ENCODING 217
SWIDTH 574 0
DWIDTH 16 0
BBX 18 32 0 -6
BITMAP
000000000100000000
000000003FC3000000
000000003DFF500000
00000000006DF40000
000000000000620000
000000010000000440
00002AED000002DFE1
0000AFF8000006FFA0
0000EFF200000AFF40
0004FFB000000EFE00
0009FF6000003FFA00
000DFF1000007FF500
002FFB000000BFF100
006FF6000000EFB000
00AFF1000003FF7000
00EFC0000007FF2000
02FF8000000BFD0000
06FF4000000EF80000
09FE0000002FF40000
0CFA0000006FF10000
0FF70000009FD00000
3FF4000000DFA00000
5FF1000002FF800000
7FE0000008FF500000
9FD000000EFF400000
AFC000005FFF200000
AFD00000DFFF100000
9FF10008FBFF100000
6FF8007FC3FF200000
1EFFEEFC11FF500000
03CFFE70007C600000
000110000000000000
ENDCHAR
STARTCHAR Uacute
ENCODING 218
SWIDTH 574 0
DWIDTH 16 0
BBX 18 31 0 -6
BITMAP
0000000000002C9000
000000000006EFA000
0000000000AFE70000
000000000076100000
000000010000000440
00002AED000002DFE1
0000AFF8000006FFA0
0000EFF200000AFF40
0004FFB000000EFE00
0009FF6000003FFA00
000DFF1000007FF500
002FFB000000BFF100
006FF6000000EFB000
00AFF1000003FF7000
00EFC0000007FF2000
02FF8000000BFD0000
06FF4000000EF80000
09FE0000002FF40000
0CFA0000006FF10000
0FF70000009FD00000
3FF4000000DFA00000
5FF1000002FF800000
7FE0000008FF500000
9FD000000EFF400000
AFC000005FFF200000
AFD00000DFFF100000
9FF10008FBFF100000
6FF8007FC3FF200000
1EFFEEFC11FF500000
03CFFE70007C600000
000110000000000000
ENDCHAR
STARTCHAR Ucircumflex
ENCODING 219
SWIDTH 574 0
DWIDTH 16 0
BBX 18 32 0 -6
BITMAP
000000000001310000
00000000005EFC0000
0000000007FABF6000
000000019E702DE200
000000000000001000
000000010000000440
00002AED000002DFE1
0000AFF8000006FFA0
0000EFF200000AFF40
0004FFB000000EFE00
0009FF6000003FFA00
000DFF1000007FF500
002FFB000000BFF100
006FF6000000EFB000
00AFF1000003FF7000
00EFC0000007FF2000
02FF8000000BFD0000
06FF4000000EF80000
09FE0000002FF40000
0CFA0000006FF10000
0FF70000009FD00000
3FF4000000DFA00000
5FF1000002FF800000
7FE0000008FF500000
9FD000000EFF400000
AFC000005FFF200000
AFD00000DFFF100000
9FF10008FBFF100000
6FF8007FC3FF200000
1EFFEEFC11FF500000
03CFFE70007C600000
000110000000000000
ENDCHAR
STARTCHAR Udieresis
ENCODING 220
SWIDTH 574 0
DWIDTH 16 0
BBX 18 31 0 -6
BITMAP
000000001540034000
00000000DFD08FF300
00000001CB307C7000
000000000000000000
000000010000000440
00002AED000002DFE1
0000AFF8000006FFA0
0000EFF200000AFF40
0004FFB000000EFE00
0009FF6000003FFA00
000DFF1000007FF500
002FFB000000BFF100
006FF6000000EFB000
00AFF1000003FF7000
00EFC0000007FF2000
02FF8000000BFD0000
06FF4000000EF80000
09FE0000002FF40000
0CFA0000006FF10000
0FF70000009FD00000
3FF4000000DFA00000
5FF1000002FF800000
7FE0000008FF500000
9FD000000EFF400000
AFC000005FFF200000
AFD00000DFFF100000
9FF10008FBFF100000
6FF8007FC3FF200000
1EFFEEFC11FF500000
03CFFE70007C600000
000110000000000000
ENDCHAR
STARTCHAR Yacute
ENCODING 221
SWIDTH 532 0
DWIDTH 15 0
BBX 16 31 0 -6
BITMAP
000000000003D700
00000000007FF800
000000001CFE6000
0000000008500000
0000146100000276
0001EFE000001FFC
0006FF9000005FF7
000AFF3000008FF3
000EFD000000CFD0
003FF8000000FF90
007FF3000003FF50
00BFD0000007FF10
00EF9000000AFC00
03FF4000000EF800
06FF1000004FF400
09FC000000AFF100
0CF9000002FFC000
0EF6000009FF8000
1FF500004FFF4000
0FF60002EDCF1000
0DFD315EE3FC0000
07FFFFFC35F80000
007CDB600AF40000
000000001EE00000
000000007F900000
00100002EF200000
1BC1001CF9000000
9FFD67DFD1000000
AFFFFFFC20000000
19EFFC7000000000
0001000000000000
ENDCHAR
STARTCHAR Thorn
ENCODING 222
SWIDTH 569 0
DWIDTH 16 0
BBX 18 26 -2 -5
BITMAP
000000003200000000
0000003EF400000000
000000AFF100000000
000000EFB000000000
000002FF7000000000
000006FF789AA71000
00000AFFFDBDFFE500
0002BFFC40002CFF30
002EFFF6000002FFA0
003FFFF2000000BFE0
0008AFD00000009FF1
0000CF90000000AFF1
0001FF50000000DFD0
0004FF20000001FF90
0008FD00000008FF30
000BFA0000002EFA00
000FF6000000CFE200
003FF300001BFE3000
007FF10004DFD30000
00BFD026CFF9100000
00EFEEFFD820000000
03FFA5420000000000
06FF50000000000000
0AFF30000000000000
0DFF10000000000000
1FE900000000000000
ENDCHAR
STARTCHAR germandbls
ENCODING 223
SWIDTH 495 0
DWIDTH 14 0
BBX 17 33 -4 -14
BITMAP
000000000026730000
0000000008FFFF7000
000000008FF72DF200
00000003FF400CF500
0000000AFA002FF300
0000001FF4008FC000
0000006FD001EF4000
000000AF8007FA0000
000000EF300DE20000
000004FD000FC00000
000008F8000BF30000
00000DF30003FD0000
00002FD00000BF8000
00006F9000003FF400
07D8BF4000000AFD00
003BFF10001302FF60
0003FFC102EC00BF50
0007F8EC17FF31CB00
000BF15FA2EFEEC100
001FD00AF33CD81000
004F9004FA00000000
008F6000FE00000000
00CF2000EF10000000
01FE0000FF00000000
04FA0003FC00000000
08F7000AF700000000
0CF3003FE100000000
1FF001CF8000000000
3FD01BFD0000000000
5FE9EFE30000000000
4FFFFE300000000000
0BFFA2000000000000
002100000000000000
ENDCHAR
STARTCHAR agrave
ENCODING 224
SWIDTH 435 0
DWIDTH 12 0
BBX 16 19 -1 -1
BITMAP
0000010000000000
00003FC300000000
00003DFF50000000
0000006DF4000000
0000000062000000
0000000000000000
0000005720000000
00003DFFD0000000
0004ED5FE0000000
002EE21AED000000
00CF7003FB000000
06FD0006F8000055
0CF7000AF50003E2
2FF4000EF1001D50
5FF2007FD000C900
6FF207EEB00AC000
5FFDDF6CE3AD1000
0DFFD507FFD20000
0153000044000000
ENDCHAR
STARTCHAR aacute
ENCODING 225
SWIDTH 435 0
DWIDTH 12 0
BBX 16 18 -1 -1
BITMAP
00000001BB000000
0000004EFC000000
000008FF81000000
0000067100000000
0000000000000000
0000005720000000
00003DFFD0000000
0004ED5FE0000000
002EE21AED000000
00CF7003FB000000
06FD0006F8000055
0CF7000AF50003E2
2FF4000EF1001D50
5FF2007FD000C900
6FF207EEB00AC000
5FFDDF6CE3AD1000
0DFFD507FFD20000
0153000044000000
ENDCHAR
STARTCHAR acircumflex
ENCODING 226
SWIDTH 435 0
DWIDTH 12 0
BBX 16 18 -1 -1
BITMAP
0000000230000000
0000008FF7000000
00001BF7EE200000
0002CD306FB00000
0000000000100000
0000005720000000
00003DFFD0000000
0004ED5FE0000000
002EE21AED000000
00CF7003FB000000
06FD0006F8000055
0CF7000AF50003E2
2FF4000EF1001D50
5FF2007FD000C900
6FF207EEB00AC000
5FFDDF6CE3AD1000
0DFFD507FFD20000
0153000044000000
ENDCHAR
STARTCHAR atilde
ENCODING 227
SWIDTH 435 0
DWIDTH 12 0
BBX 16 17 -1 -1
BITMAP
0000366200250000
0009FFFFDBE90000
00099337BC910000
0000000000000000
0000005720000000
00003DFFD0000000
0004ED5FE0000000
002EE21AED000000
00CF7003FB000000
06FD0006F8000055
0CF7000AF50003E2
2FF4000EF1001D50
5FF2007FD000C900
6FF207EEB00AC000
5FFDDF6CE3AD1000
0DFFD507FFD20000
0153000044000000
ENDCHAR
STARTCHAR adieresis
ENCODING 228
SWIDTH 435 0
DWIDTH 12 0
BBX 16 17 -1 -1
BITMAP
0000035101520000
00005FF61EFB0000
00006C801BA30000
0000000000000000
0000005720000000
00003DFFD0000000
0004ED5FE0000000
002EE21AED000000
00CF7003FB000000
06FD0006F8000055
0CF7000AF50003E2
2FF4000EF1001D50
5FF2007FD000C900
6FF207EEB00AC000
5FFDDF6CE3AD1000
0DFFD507FFD20000
0153000044000000
ENDCHAR
STARTCHAR aring
ENCODING 229
SWIDTH 435 0
DWIDTH 12 0
BBX 16 17 -1 -1
BITMAP
0000007B70000000
000006C5F2000000
000008C8D0000000
0000018820000000
0000005720000000
00003DFFD0000000
0004ED5FE0000000
002EE21AED000000
00CF7003FB000000
06FD0006F8000055
0CF7000AF50003E2
2FF4000EF1001D50
5FF2007FD000C900
6FF207EEB00AC000
5FFDDF6CE3AD1000
0DFFD507FFD20000
0153000044000000
ENDCHAR
STARTCHAR ae
ENCODING 230
SWIDTH 594 0
DWIDTH 17 0
BBX 20 13 -1 -1
BITMAP
00000057300056300000
00003DFFE04DFFF20000
0004ED5FD5FA3EF30000
002EE21BFFC01EE00000
00CF7007FF409F500000
06FD000AFE08F8000016
0CF7000DFCCE500001C6
2FF4000EFFC200001BA0
5FF2005FF9000001BC10
6FF206FEFA00003DB100
5FFDDF86FF6128FA0000
0DFFE600AFFFFD500000
01551000059950000000
ENDCHAR
STARTCHAR ccedilla
ENCODING 231
SWIDTH 363 0
DWIDTH 10 0
BBX 14 19 -1 -7
BITMAP
00000576000000
0003DFEF900000
003EF81DD00000
00DF80BFC00000
06FD00CF400000
0CF60022000074
1FF100000005D1
4FE00000004E30
3FD0000003E600
1FF200006E7000
0BFC3029F60000
02EFFFFD400000
001CFA60000000
000EB000000000
004FFD80000000
00024EF3000000
00002ED1000000
003AEA10000000
00451000000000
ENDCHAR
STARTCHAR egrave
ENCODING 232
SWIDTH 372 0
DWIDTH 10 0
BBX 14 19 -1 -1
BITMAP
00000100000000
00007FA1000000
00006EFD300000
0000018EE10000
00000001700000
00000000000000
00000156100000
00006EFFD00000
0008F84FF00000
006FA03FB00000
01EF20BF300000
08FB1BF5000024
0DFADD300002D4
1FFFA100002D70
2FF7000002D900
0FF700005E9000
09FE5139F80000
01DFFFFC400000
00169840000000
ENDCHAR
STARTCHAR eacute
ENCODING 233
SWIDTH 372 0
DWIDTH 10 0
BBX 14 18 -1 -1
BITMAP
00000003D70000
0000007FF80000
00001CFD600000
00000850000000
00000000000000
00000156100000
00006EFFD00000
0008F84FF00000
006FA03FB00000
01EF20BF300000
08FB1BF5000024
0DFADD300002D4
1FFFA100002D70
2FF7000002D900
0FF700005E9000
09FE5139F80000
01DFFFFC400000
00169840000000
ENDCHAR
STARTCHAR ecircumflex
ENCODING 234
SWIDTH 372 0
DWIDTH 10 0
BBX 14 18 -1 -1
BITMAP
00000003200000
000001BFF30000
00003DD7FC0000
0005EB109F7000
00000000000000
00000156100000
00006EFFD00000
0008F84FF00000
006FA03FB00000
01EF20BF300000
08FB1BF5000024
0DFADD300002D4
1FFFA100002D70
2FF7000002D900
0FF700005E9000
09FE5139F80000
01DFFFFC400000
00169840000000
ENDCHAR
STARTCHAR edieresis
ENCODING 235
SWIDTH 372 0
DWIDTH 10 0
BBX 14 17 -1 -1
BITMAP
00002520143000
0003FF90DFD000
0004C910BB4000
00000000000000
00000156100000
00006EFFD00000
0008F84FF00000
006FA03FB00000
01EF20BF300000
08FB1BF5000024
0DFADD300002D4
1FFFA100002D70
2FF7000002D900
0FF700005E9000
09FE5139F80000
01DFFFFC400000
00169840000000
ENDCHAR
STARTCHAR igrave
ENCODING 236
SWIDTH 274 0
DWIDTH 8 0
BBX 10 19 0 -1
BITMAP
0100000000
4FC2000000
4DFE400000
006EF30000
0001710000
0000000000
0000000000
006B700000
03FF500000
08FE100000
0CFA000000
1FF5000029
3FF10001D7
5FB0001BB0
6F7001BC10
6F602CD200
4FC7ED2000
09FFB10000
0034000000
ENDCHAR
STARTCHAR iacute
ENCODING 237
SWIDTH 274 0
DWIDTH 8 0
BBX 10 19 0 -1
BITMAP
0000000100
0000019D10
00003DFE10
0006FFA200
0005820000
0000000000
0000000000
006B700000
03FF500000
08FE100000
0CFA000000
1FF5000029
3FF10001D7
5FB0001BB0
6F7001BC10
6F602CD200
4FC7ED2000
09FFB10000
0034000000
ENDCHAR
STARTCHAR icircumflex
ENCODING 238
SWIDTH 274 0
DWIDTH 8 0
BBX 10 18 0 -1
BITMAP
0000320000
001BFF4000
03DE7FC000
4DB209F800
0000000000
0000000000
006B700000
03FF500000
08FE100000
0CFA000000
1FF5000029
3FF10001D7
5FB0001BB0
6F7001BC10
6F602CD200
4FC7ED2000
09FFB10000
0034000000
ENDCHAR
STARTCHAR idieresis
ENCODING 239
SWIDTH 274 0
DWIDTH 8 0
BBX 10 17 0 -1
BITMAP
0252004300
3FF90CFE00
4CA10AB400
0000000000
0000000000
006B700000
03FF500000
08FE100000
0CFA000000
1FF5000029
3FF10001D7
5FB0001BB0
6F7001BC10
6F602CD200
4FC7ED2000
09FFB10000
0034000000
ENDCHAR
STARTCHAR eth
ENCODING 240
SWIDTH 393 0
DWIDTH 11 0
BBX 15 20 -1 -1
BITMAP
0000000400000000
0000000E40000000
0000000AC0000000
00000005F8ACA000
000018CFFFFD5000
00009FFBFB100000
00007510DC000000
00000100DD000000
0004CFE8DE000000
002FFA7FFD000000
00CF900BFC0005A0
05FF6008FA019D20
0BFFA008F96EA100
0EFBF95BFFE60000
2FC1CFFFF8100000
2FB0048FC0000000
1FC000CF60000000
0CF52AFB00000000
04FFFFB100000000
0037840000000000
ENDCHAR
STARTCHAR ntilde
ENCODING 241
SWIDTH 461 0
DWIDTH 13 0
BBX 16 17 -1 -1
BITMAP
0000256400060000
0005FFFFEBDD0000
0005B536ACA30000
0000000000000000
0000000000000000
00057218DB100000
003FF4DFFF800000
006FEDB4DFB00000
00AFFB00BFA00000
00DFD100DF700009
02FF3001FF300089
05FC0005FE0005E1
09F90009FA003E50
0DF5000DF603E800
2FF2000FF76E9000
6FC0000CFFF80000
4500000289300000
ENDCHAR
STARTCHAR ograve
ENCODING 242
SWIDTH 393 0
DWIDTH 11 0
BBX 15 19 -1 -1
BITMAP
0000010000000000
00007FA100000000
00006EFD30000000
0000018EE1000000
0000000170000000
0000000000000000
0000010000000000
0004CFE800000000
002FFA7F90000000
00CF900BF20005A0
05FF6008F6019D20
0BFFA008F66EA100
0EFBF95BFFE60000
2FC1CFFFF7100000
2FB0048FC0000000
1FC000CF50000000
0CF52AFB00000000
04FFFFB100000000
0037840000000000
ENDCHAR
STARTCHAR oacute
ENCODING 243
SWIDTH 393 0
DWIDTH 11 0
BBX 15 18 -1 -1
BITMAP
00000003D7000000
0000007FF8000000
00001CFD60000000
0000085000000000
0000000000000000
0000010000000000
0004CFE800000000
002FFA7F90000000
00CF900BF20005A0
05FF6008F6019D20
0BFFA008F66EA100
0EFBF95BFFE60000
2FC1CFFFF7100000
2FB0048FC0000000
1FC000CF50000000
0CF52AFB00000000
04FFFFB100000000
0037840000000000
ENDCHAR
STARTCHAR ocircumflex
ENCODING 244
SWIDTH 393 0
DWIDTH 11 0
BBX 15 18 -1 -1
BITMAP
0000002300000000
000019FF60000000
0002CE7FD1000000
003DC207FA000000
0000000000000000
0000010000000000
0004CFE800000000
002FFA7F90000000
00CF900BF20005A0
05FF6008F6019D20
0BFFA008F66EA100
0EFBF95BFFE60000
2FC1CFFFF7100000
2FB0048FC0000000
1FC000CF50000000
0CF52AFB00000000
04FFFFB100000000
0037840000000000
ENDCHAR
STARTCHAR otilde
ENCODING 245
SWIDTH 393 0
DWIDTH 11 0
BBX 15 17 -1 -1
BITMAP
0002663001600000
006FFFFDBEC00000
006B436ACA200000
0000000000000000
0000010000000000
0004CFE800000000
002FFA7F90000000
00CF900BF20005A0
05FF6008F6019D20
0BFFA008F66EA100
0EFBF95BFFE60000
2FC1CFFFF7100000
2FB0048FC0000000
1FC000CF50000000
0CF52AFB00000000
04FFFFB100000000
0037840000000000
ENDCHAR
STARTCHAR odieresis
ENCODING 246
SWIDTH 393 0
DWIDTH 11 0
BBX 15 17 -1 -1
BITMAP
0000450025100000
0008FF43FF800000
0008C703C9200000
0000000000000000
0000010000000000
0004CFE800000000
002FFA7F90000000
00CF900BF20005A0
05FF6008F6019D20
0BFFA008F66EA100
0EFBF95BFFE60000
2FC1CFFFF7100000
2FB0048FC0000000
1FC000CF50000000
0CF52AFB00000000
04FFFFB100000000
0037840000000000
ENDCHAR
STARTCHAR divide
ENCODING 247
SWIDTH 350 0
DWIDTH 10 0
BBX 11 10 -1 5
BITMAP
000000550000
000009FF1000
000005A50000
000122221000
09EFFFFFFF80
1FFEDCCBBB40
141000000000
00007A400000
0004FF600000
000174000000
ENDCHAR
STARTCHAR oslash
ENCODING 248
SWIDTH 406 0
DWIDTH 11 0
BBX 17 15 -2 -2
BITMAP
000000000002100000
0000000104DD100000
00001AFFBEF3000000
0000CFC7DF70000000
0007FD106F70002C10
001EFB003FB006E500
006FFE003FB4CD3000
00AFBFC68FFF910000
00CF29FFFFB3000000
00CF1025FF20000000
00AF3007FB00000000
007F926FE200000000
01DFFFFE4000000000
09FC78610000000000
3EB300000000000000
ENDCHAR
STARTCHAR ugrave
ENCODING 249
SWIDTH 468 0
DWIDTH 13 0
BBX 16 18 0 -1
BITMAP
0000100000000000
0003FC3000000000
0003DFF500000000
000006DF40000000
0000000620000000
0000000000000000
0047200078000000
05FE0005FF000000
0DF9000BFD000000
3FF3001FFA000000
7FD0005FF7000085
AF90008FF20004D0
DF50009FA0002E40
EF30009F5001D700
EF4003EF701CA000
BFC67ECFD7DB1000
3EFFFB1BFF900000
0156300152000000
ENDCHAR
STARTCHAR uacute
ENCODING 250
SWIDTH 468 0
DWIDTH 13 0
BBX 16 18 0 -1
BITMAP
0000000010000000
00000008E2000000
000002CFE2000000
00005EFB30000000
0000483000000000
0000000000000000
0047200078000000
05FE0005FF000000
0DF9000BFD000000
3FF3001FFA000000
7FD0005FF7000085
AF90008FF20004D0
DF50009FA0002E40
EF30009F5001D700
EF4003EF701CA000
BFC67ECFD7DB1000
3EFFFB1BFF900000
0156300152000000
ENDCHAR
STARTCHAR ucircumflex
ENCODING 251
SWIDTH 468 0
DWIDTH 13 0
BBX 16 18 0 -1
BITMAP
0000001310000000
000005EFC0000000
00008F9BF5000000
001AE603DE200000
0000000001000000
0000000000000000
0047200078000000
05FE0005FF000000
0DF9000BFD000000
3FF3001FFA000000
7FD0005FF7000085
AF90008FF20004D0
DF50009FA0002E40
EF30009F5001D700
EF4003EF701CA000
BFC67ECFD7DB1000
3EFFFB1BFF900000
0156300152000000
ENDCHAR
STARTCHAR udieresis
ENCODING 252
SWIDTH 468 0
DWIDTH 13 0
BBX 16 17 0 -1
BITMAP
0000451015200000
0006FF52EFA00000
0007C702CA200000
0000000000000000
0000000000000000
0047200078000000
05FE0005FF000000
0DF9000BFD000000
3FF3001FFA000000
7FD0005FF7000085
AF90008FF20004D0
DF50009FA0002E40
EF30009F5001D700
EF4003EF701CA000
BFC67ECFD7DB1000
3EFFFB1BFF900000
0156300152000000
ENDCHAR
STARTCHAR yacute
ENCODING 253
SWIDTH 406 0
DWIDTH 11 0
BBX 12 28 -1 -12
BITMAP
000000002C90
00000006EFA0
000000BFE700
000000861000
000000000000
007A40004A90
00EFA0008FF1
01FF70008FE0
04FF2000AFA0
09FC0001EF50
0DF70007FE00
2FF2001EFA00
5FE0009FF600
6FD006FFF200
4FF67FCFE000
0DFFFD5FB000
018B817F7000
000000BF4000
000001FF1000
000004FC0000
000008F90000
00000CF60000
00001FF30000
00005FE00000
00009FC00000
0000DF900000
0001FF600000
00006B200000
ENDCHAR
STARTCHAR thorn
ENCODING 254
SWIDTH 451 0
DWIDTH 13 0
BBX 18 32 -3 -12
BITMAP
000000002100000000
0000004EF800000000
0000005FF700000000
0000006FF300000000
0000009FE000000000
000000CFA000000000
000001FF5000000000
000004FF1000000000
000007FB0000000000
00000BF706CB100000
00000EF4BFFF900000
00003FECC47FC00000
00007FFB001FD00000
0000AFD1003FB00015
0000EF30008F8000C5
0002FC0001EF2009A0
0006F90009FA008D10
000AFEF96FE209E300
000DFFFFFF95DE3000
002FDDFFFFFFB20000
006FA3BB4464000000
00AF60000000000000
00DF30000000000000
02FF00000000000000
06FC00000000000000
0AF900000000000000
0EF600000000000000
2FF300000000000000
6FF100000000000000
AFD000000000000000
DFA000000000000000
4B4000000000000000
ENDCHAR
STARTCHAR ydieresis
ENCODING 255
SWIDTH 406 0
DWIDTH 11 0
BBX 12 28 -1 -12
BITMAP
000025201430
0003FF90DFD0
0004C910BB40
000000000000
000000000000
007A40004A90
00EFA0008FF1
01FF70008FE0
04FF2000AFA0
09FC0001EF50
0DF70007FE00
2FF2001EFA00
5FE0009FF600
6FD006FFF200
4FF67FCFE000
0DFFFD5FB000
018B817F7000
000000BF4000
000001FF1000
000004FC0000
000008F90000
00000CF60000
00001FF30000
00005FE00000
00009FC00000
0000DF900000
0001FF600000
00006B200000
ENDCHAR
STARTCHAR dotlessi
ENCODING 305
SWIDTH 274 0
DWIDTH 8 0
BBX 10 12 0 -1
BITMAP
006B700000
03FF500000
08FE100000
0CFA000000
1FF5000029
3FF10001D7
5FB0001BB0
6F7001BC10
6F602CD200
4FC7ED2000
09FFB10000
0034000000
ENDCHAR
STARTCHAR Lslash
ENCODING 321
SWIDTH 492 0
DWIDTH 14 0
BBX 18 27 -3 -6
BITMAP
000000000000005871
0000000000002CFFF9
000000000001CFEDFD
000000000008FE34FD
00000000001EF807FA
00000000006FF21DF4
0000000000BFD0AFB0
0000000000EFBBFE20
0000000002FFFFE300
000272124AFFFC2000
0001DFFFFFFE600000
000017AAAEFA000000
000000001FF6000000
000000004FF3240000
00000014AFFFFE0000
00001BFFFFFDA50000
00006FECFF50000000
00004516FE00000000
0000000BF800000000
0000002FF200000000
0000009F9000000000
06CFFDFE2000000000
6FFEEFFE5000000200
BF92AFEFFB30028B00
9FFFE619FFFEEFF700
068610003BFFFFC100
000000000026861000
ENDCHAR
STARTCHAR lslash
ENCODING 322
SWIDTH 218 0
DWIDTH 6 0
BBX 10 21 -2 -1
BITMAP
0000001300
000008FF40
000009FF30
00000AFE00
00000DFA00
00001FF700
00005FF300
00008FE000
0000CFD8A8
059CFFFFF8
8FFFFF8520
BC79FE0000
100BFA0000
000EF60000
003FF20000
007FD00000
00AF900000
00EF500000
02FF100000
05FD000000
0064000000
ENDCHAR
STARTCHAR OE
ENCODING 338
SWIDTH 918 0
DWIDTH 26 0
BBX 27 27 0 -6
BITMAP
00000004BD761000000269971000
0000007FFFFFD10003BFFCBFE200
000006FFF92DF7008FF91005FC00
00003FF76007FD0AFF500001FF10
0000DFB00004FF9FF8000003FF10
0007FF200002FFFFE0000008FE00
001EF9000001FFFF8000002EF900
007FF2000000FFFF500004DFF200
00CFB0000000FFFF400005CE5000
03FF60000000FFFF500000000000
08FF10000001FFFF900000000000
0CFC00000002FFEFF30000000000
1FF900000004FF4AFE7860000000
4FF600000006FF49FFFFE0000000
6FF400000009FFFE836930000000
8FF20000000DFFE3000000000000
AFF00000001FFF30000000000000
AFE00000006FF900000000000000
BFE0000000BFF400000000060000
AFE0000002FFF3000000005A0000
9FE0000009FFF400000001E50000
7FF100002FFFF80000000AD00000
3FF40000BFDFFE2000009F400000
0CF90009FD1BFFD4003CF8000000
03FF75BFD201CFFFFFFF70000000
004EFFFA100006CFFEA300000000
0000441000000000100000000000
ENDCHAR
STARTCHAR oe
ENCODING 339
SWIDTH 583 0
DWIDTH 16 0
BBX 20 13 -1 -1
BITMAP
00000100000046300000
0004CFE8004DFFF20000
002FFA7F95FB3DF40000
00CF900BFFD10EE10000
05FF8008FF509F700000
0BFFE208FE18FA000016
0EF9FE8CFDCF900000B7
2FC09FFFFFC400000AA0
2FB0018FF8000000BC10
1FC000CFFA00002CC100
0CF52AFDFF6128EA1000
04FFFFA1AFFFFE600000
00377400059951000000
ENDCHAR
STARTCHAR Scaron
ENCODING 352
SWIDTH 474 0
DWIDTH 13 0
BBX 18 32 -2 -6
BITMAP
000000000011000000
00000000005FC11BF7
000000000009F9DE40
000000000001EFC200
000000000000120000
0000000038ABA61000
0000001AFFEBCFC100
000002DFE7100DF700
00000CFE300009FB00
00006FF4000009FC00
0000BFB000000CFB00
0000EF9000002FF800
0000EFB000008FE200
0000BFF20000772000
00006FFA0000000000
00000DFF7000000000
000004FFF600000000
0000006FFF40000000
00000009FFD0000000
00000000CFF6000000
000000003FFB000000
000000000BFE000000
0000000006FF000000
0002100003FE000000
06EE100003FC000000
2FFA000005F9000000
4FFA00000BF4000000
2FFD00004FC0000000
0CFF6002DF40000000
03FFFAAEF700000000
006EFFFD5000000000
000145300000000000
ENDCHAR
STARTCHAR scaron
ENCODING 353
SWIDTH 351 0
DWIDTH 10 0
BBX 10 20 0 -1
BITMAP
0001000000
003ED109F8
0007FACE50
0000DFD300
0000120000
0000000000
0000250000
0006FF7000
005FFE2000
00AFF80000
008FFA0000
02E7FE0000
0B90BF6000
6C106FD000
52001EF500
004009FA00
0CF106F900
3FF809E100
0CFFDE3000
01AEA20000
ENDCHAR
STARTCHAR Ydieresis
ENCODING 376
SWIDTH 532 0
DWIDTH 15 0
BBX 16 31 0 -6
BITMAP
0000000045102510
00000007FF53EF90
00000007C702CA20
0000000000000000
0000146100000276
0001EFE000001FFC
0006FF9000005FF7
000AFF3000008FF3
000EFD000000CFD0
003FF8000000FF90
007FF3000003FF50
00BFD0000007FF10
00EF9000000AFC00
03FF4000000EF800
06FF1000004FF400
09FC000000AFF100
0CF9000002FFC000
0EF6000009FF8000
1FF500004FFF4000
0FF60002EDCF1000
0DFD315EE3FC0000
07FFFFFC35F80000
007CDB600AF40000
000000001EE00000
000000007F900000
00100002EF200000
1BC1001CF9000000
9FFD67DFD1000000
AFFFFFFC20000000
19EFFC7000000000
0001000000000000
ENDCHAR
STARTCHAR Zcaron
ENCODING 381
SWIDTH 455 0
DWIDTH 13 0
BBX 18 31 -3 -5
BITMAP
000000000011000000
00000000007FA02CE5
00000000000BF8ED30
000000000003FFA100
000000000000120000
000000013455544210
000002EFFFFFFFFFA0
000009FFFFEDCCEFC0
00000BC7410000CFC0
00000100000002FF80
0000000000000AFF20
0000000000005FF900
000000000001EFD100
00000000000BFF4000
00000000007FF80000
0000000004FFB00000
000000002EFD100000
00000001CFE2000000
0000000AFF40000000
0000007FF700000000
000004FF9000000000
00002EFC0000000000
0000CFE20000000000
0007FF400000000000
002FF7000000000000
00BFB0000000000000
04FF20000000000000
0CF902567764200000
3FFBEFFFFFFFF60000
1FFFFFFFFFFFC00000
0BB85434579A100000
ENDCHAR
STARTCHAR zcaron
ENCODING 382
SWIDTH 349 0
DWIDTH 10 0
BBX 16 31 -4 -13
BITMAP
0000000100000000
0000001CE406EB10
00000003FD9F9000
000000009FE50000
0000000002100000
0000000000000000
0000000011100000
00003ADFFFFD0000
0000CFFECCFD0000
0000B83007F70000
000000001EE10000
000000008F700000
00000004FD000002
0000001DF3000097
000002DF963008B0
00002DFFEFC1AC10
00005FF60AFDB100
000008304DF70000
0000005CFFC00000
00002BFB7F800000
0003EE50BF400000
003EE302FE000000
01DE3008F9000000
09F6001EF3000000
2FD0008FC0000000
7F8002EF40000000
9F600AFB00000000
9F808FF200000000
6FFEFF5000000000
0BFFE50000000000
0022000000000000
ENDCHAR
STARTCHAR circumflex
ENCODING 710
SWIDTH 567 0
DWIDTH 16 0
BBX 8 5 6 15
BITMAP
00013100
004EFC00
07FABF60
9E702DE3
00000010
ENDCHAR
STARTCHAR caron
ENCODING 711
SWIDTH 567 0
DWIDTH 16 0
BBX 9 5 5 15
BITMAP
0110000000
1CF505EC20
02FE8F9000
008FF60000
0002100000
ENDCHAR
STARTCHAR breve
ENCODING 728
SWIDTH 567 0
DWIDTH 16 0
BBX 8 4 6 15
BITMAP
97000491
FD002DD0
AFDBEE30
19DD9200
ENDCHAR
STARTCHAR dotaccent
ENCODING 729
SWIDTH 567 0
DWIDTH 16 0
BBX 4 3 8 16
BITMAP
0550
AFF1
AC50
ENDCHAR
STARTCHAR ring
ENCODING 730
SWIDTH 567 0
DWIDTH 16 0
BBX 5 4 7 15
BITMAP
04BA10
2E5D70
3F7E30
069400
ENDCHAR
STARTCHAR ogonek
ENCODING 731
SWIDTH 567 0
DWIDTH 16 0
BBX 7 6 6 -4
BITMAP
01200000
2EB00000
AF400050
CFA68D80
5FFFA300
01200000
ENDCHAR
STARTCHAR tilde
ENCODING 732
SWIDTH 567 0
DWIDTH 16 0
BBX 9 3 5 16
BITMAP
0266300160
6FFFFDBEC0
6B436ACA20
ENDCHAR
STARTCHAR hungarumlaut
ENCODING 733
SWIDTH 567 0
DWIDTH 16 0
BBX 10 5 5 15
BITMAP
0000000010
003D9008E2
06EFA2CFF2
BFE75EFB30
8610383000
ENDCHAR
STARTCHAR endash
ENCODING 8211
SWIDTH 353 0
DWIDTH 10 0
BBX 11 3 -1 7
BITMAP
069ABBCCBA40
3FFFFFFFFF40
485432111100
ENDCHAR
STARTCHAR emdash
ENCODING 8212
SWIDTH 508 0
DWIDTH 14 0
BBX 15 3 -1 7
BITMAP
08ABCDDDDDDCB950
5FFFFFFFFFFFFFB0
2765433233456720
ENDCHAR
STARTCHAR quoteleft
ENCODING 8216
SWIDTH 155 0
DWIDTH 4 0
BBX 4 7 1 12
BITMAP
01A4
0AB0
4F50
9FF5
CFF7
9FB1
0100
ENDCHAR
STARTCHAR quoteright
ENCODING 8217
SWIDTH 154 0
DWIDTH 4 0
BBX 4 7 1 12
BITMAP
06DA
2FFF
3FFE
03F9
06E1
1D30
0100
ENDCHAR
STARTCHAR quotesinglbase
ENCODING 8218
SWIDTH 188 0
DWIDTH 5 0
BBX 4 7 -1 -4
BITMAP
2AB1
DFF4
EFF3
3CD0
1E60
A800
3000
ENDCHAR
STARTCHAR quotedblleft
ENCODING 8220
SWIDTH 289 0
DWIDTH 8 0
BBX 8 7 1 12
BITMAP
01A402C1
0AB01D70
4F507F10
9FF5DFE2
CFF7FFF3
9FB1CF90
01000100
ENDCHAR
STARTCHAR quotedblright
ENCODING 8221
SWIDTH 288 0
DWIDTH 8 0
BBX 8 6 1 13
BITMAP
08FC1BF8
3FFF7FFC
2FFD6FF9
02F805F3
07D10AA0
1C204B10
ENDCHAR
STARTCHAR quotedblbase
ENCODING 8222
SWIDTH 323 0
DWIDTH 9 0
BBX 8 7 -1 -4
BITMAP
2AB14B90
DFF6FFF1
EFF6FFE0
3CD04F90
1E604E20
A801C500
30013000
ENDCHAR
STARTCHAR bullet
ENCODING 8226
SWIDTH 180 0
DWIDTH 5 0
BBX 6 7 -1 4
BITMAP
00AF90
09FFF4
1FFFF5
4FFFF2
3FFFC0
0CFD20
013000
ENDCHAR
STARTCHAR ellipsis
ENCODING 8230
SWIDTH 614 0
DWIDTH 17 0
BBX 16 4 -1 -1
BITMAP
0010000010000110
3CFC007EF601BFE1
CFF902FFF308FFC0
5960008930039710
ENDCHAR
STARTCHAR perthousand
ENCODING 8240
SWIDTH 851 0
DWIDTH 24 0
BBX 23 22 0 -1
BITMAP
000024100000003820000000
0008FFE4000007FA00000000
008FB3CD10004FD100000000
02FD107F4001DF3000000000
08F5006F500AF70000000000
0CF1009F305FB00000000000
0DD000DE01EE100000000000
0CD005F90BF5000000000000
0AF54EE26F90000000000000
03EFFE32ED10000000000000
0026510BF300000000000000
0000007F8003300000143000
000002FD02DFFB0004EFF900
00000CF31DF55F803EE47F50
00007F908F600ED0BF401FA0
0003FD10EE000DD2FC001FA0
000CF403F9001FC6F7003F90
008FA004F7005F87F4008F50
04FE2004F700CF27F501EE10
1DF70001FC39F904FB3BF600
9FD000008FFFA000BFFF8000
650000000463000005620000
ENDCHAR
STARTCHAR guilsinglleft
ENCODING 8249
SWIDTH 202 0
DWIDTH 6 0
BBX 7 12 -1 -1
BITMAP
00005C20
0005F700
004EB000
03ED1000
2EF30000
DF700000
BF700000
2FD00000
08F50000
01EB0000
005F3000
00052000
ENDCHAR
STARTCHAR guilsinglright
ENCODING 8250
SWIDTH 202 0
DWIDTH 6 0
BBX 7 12 -2 -1
BITMAP
00B60000
009E1000
002F9000
000BF300
0004FC00
0000EF50
0005FD10
002EE200
01DE3000
0AF40000
6F400000
52000000
ENDCHAR
STARTCHAR fraction
ENCODING 8260
SWIDTH 600 0
DWIDTH 17 0
BBX 17 22 0 -1
BITMAP
000000000000000580
00000000000000BF70
00000000000007FA00
0000000000003FD100
000000000000DF4000
000000000008F70000
00000000004FB00000
0000000001DE200000
0000000009F5000000
000000005FA0000000
00000001ED10000000
0000000AF400000000
0000005F9000000000
000002ED1000000000
00000BF50000000000
00006FA00000000000
0002EE200000000000
000CF6000000000000
007FC0000000000000
03FF30000000000000
0CF900000000000000
164000000000000000
ENDCHAR
STARTCHAR Euro
ENCODING 8364
SWIDTH 334 0
DWIDTH 9 0
BBX 13 18 -2 1
BITMAP
00000000144000
00000007EEFB10
0000009FA13F80
000007FC000D70
00002FF2000100
0000AF80000000
0002FF20000000
02CEFFEDCB2000
05BFF977770000
025FF877610000
1EFFFEEDC10000
247F9000000000
006F7000000000
003F6000041000
000D90004E3000
0005F317F60000
00006EFC400000
00000010000000
ENDCHAR
STARTCHAR minus
ENCODING 8722
SWIDTH 353 0
DWIDTH 10 0
BBX 11 3 -1 7
BITMAP
069ABBCCBA40
3FFFFFFFFF40
485432111100
ENDCHAR
STARTCHAR fi
ENCODING 64257
SWIDTH 549 0
DWIDTH 15 0
BBX 21 34 -3 -14
BITMAP
0000000376000000000000
0000003FFC000000000000
0000001FFC00001B900000
0000000FFB00009FC00000
0000001FF700009F600000
0000003FF3000001000000
0000006FD0000000000000
0000009F90000000000000
000000DF40000000000000
000001FE000008B5000000
000006FA00006FF2000000
00000AF50000CFC0000000
00001EF47ADFFF60000000
00007FFFC735FF20000560
0008FF930007FC00003E30
001FFE100009F70002E800
000DFB00000AF4002DA000
0008FF90000AF203EB0000
000CFCF90008F99FB10000
001FD0CF6001CFF8000000
005F902FE1000430000000
009F5009F6000000000000
00CF2005FB000000000000
01FE0003FC000000000000
05FA0004FB000000000000
09F70008F8000000000000
0CF3000DF3000000000000
1FE0006FC0000000000000
4FB002EF40000000000000
7F902DFA00000000000000
9FD9EFD100000000000000
8FFFFC1000000000000000
2EFE800000000000000000
0020000000000000000000
ENDCHAR
STARTCHAR fl
ENCODING 64258
SWIDTH 516 0
DWIDTH 14 0
BBX 18 34 -3 -14
BITMAP
000000037600000021
0000003FFC00003EF8
0000001FFC00004FF7
0000000FFB00006FF4
0000001FF700008FF1
0000003FF30000CFC0
0000006FD00000FF80
0000009F900003FF40
000000DF400007FE00
000001FE00000BFB00
000006FA00000EF700
00000AF500003FF300
00001EF47ADFFFE000
00007FFFC731AFA000
0008FF930000EF7000
001FFE100002FF3000
000DFB000006FE0000
0008FF900009FA0000
000CFCF9000DF60000
001FD0CF600FF30000
005F902FE104700000
009F5009F600000000
00CF2005FB00000000
01FE0003FC00000000
05FA0004FB00000000
09F70008F800000000
0CF3000DF300000000
1FE0006FC000000000
4FB002EF4000000000
7F902DFA0000000000
9FD9EFD10000000000
8FFFFC100000000000
2EFE80000000000000
002000000000000000
ENDCHAR
STARTCHAR .notdef
ENCODING -1
SWIDTH 280 0
DWIDTH 8 0
BBX 1 1 0 0
BITMAP
00
ENDCHAR
ENDFONT
